<?xml version="1.0" encoding="UTF-8"?>
<svg version="1.1" xmlns="http://www.w3.org/2000/svg" width="64" height="64">
<path d="M0 0 C3.61647497 2.15449573 5.41118414 4.15631447 7 8 C7.70439351 12.96351704 7.53310707 16.91404116 5.3125 21.4375 C3.02833433 23.9686025 0.91393712 25.30020335 -2 27 C-2 27.99 -2 28.98 -2 30 C-2.66 30 -3.32 30 -4 30 C-3.80921875 30.54527344 -3.6184375 31.09054688 -3.421875 31.65234375 C-1.6919887 37.53596865 -2.22452372 40.58751021 -5.0390625 45.98046875 C-6.19776209 48.41562195 -6.34393531 50.33450138 -6 53 C-6.66 53 -7.32 53 -8 53 C-8.37546934 45.61576971 -8.37546934 45.61576971 -6.4375 42.4375 C-4.38343537 38.95452084 -5.13048742 36.87936381 -6 33 C-6.61510127 30.64517201 -7.2872072 28.32845649 -8 26 C-8.0928125 27.3303125 -8.0928125 27.3303125 -8.1875 28.6875 C-9.18995864 32.77444675 -10.84024514 34.30264829 -14 37 C-14.99 37.495 -14.99 37.495 -16 38 C-16.33 38.99 -16.66 39.98 -17 41 C-17.66 41 -18.32 41 -19 41 C-18.649375 42.03125 -18.29875 43.0625 -17.9375 44.125 C-16.9918432 48.03371478 -16.95494293 50.16812407 -18 54 C-18.66 54.99 -19.32 55.98 -20 57 C-20.39387788 59.32387947 -20.73486085 61.65793749 -21 64 C-21.66 64 -22.32 64 -23 64 C-23.37715517 57.58836207 -23.37715517 57.58836207 -21.4375 54.5625 C-19.38706141 50.90737034 -20.26177436 47.92182369 -21 44 C-21.0825 42.906875 -21.165 41.81375 -21.25 40.6875 C-21.75143815 37.80164306 -21.75143815 37.80164306 -24.375 36.3125 C-25.24125 35.879375 -26.1075 35.44625 -27 35 C-29.7760455 32.62053243 -30.7997555 30.69387154 -31.23828125 26.984375 C-31.43407963 21.08981315 -30.51161823 17.77970259 -27 13 C-23.6556079 10.34755109 -20.13374247 10.84100991 -16 11 C-15.95875 10.113125 -15.9175 9.22625 -15.875 8.3125 C-14.94398571 4.78794592 -13.81260911 3.10234028 -10.87890625 0.91796875 C-7.3106181 -0.82537369 -3.84145125 -0.77254278 0 0 Z " fill="#E56353" transform="translate(44,0)"/>
<path d="M0 0 C0.10957031 0.61488281 0.21914063 1.22976563 0.33203125 1.86328125 C0.49058594 2.67152344 0.64914063 3.47976562 0.8125 4.3125 C0.96332031 5.11300781 1.11414063 5.91351563 1.26953125 6.73828125 C2.08513207 9.26359075 3.13646809 10.18241819 5 12 C5 15.82727486 4.47708157 17.480823 1.875 20.3125 C-2.66277959 22.97597932 -6.25783409 23.38714798 -11.375 22.25 C-12.24125 21.8375 -13.1075 21.425 -14 21 C-15.54257217 16.37228349 -15.93840059 11.58181716 -14.24609375 6.92578125 C-12.89121415 4.3913594 -11.44590686 2.35365027 -9.1875 0.5625 C-6.09696882 -0.23220802 -3.1729534 -0.12203667 0 0 Z " fill="#FBD360" transform="translate(28,11)"/>
<path d="M0 0 C3.35126656 3.85795673 3.51257961 6.55777025 3.3515625 11.52734375 C2.83048186 15.19227757 1.45795112 17.27632444 -1 20 C-2.65661761 21.01656081 -4.32111559 22.02065076 -6 23 C-6 23.99 -6 24.98 -6 26 C-6.66 26 -7.32 26 -8 26 C-7.80921875 26.54527344 -7.6184375 27.09054688 -7.421875 27.65234375 C-5.6919887 33.53596865 -6.22452372 36.58751021 -9.0390625 41.98046875 C-10.19776209 44.41562195 -10.34393531 46.33450138 -10 49 C-10.66 49 -11.32 49 -12 49 C-12.37546934 41.61576971 -12.37546934 41.61576971 -10.4375 38.4375 C-8.38343537 34.95452084 -9.13048742 32.87936381 -10 29 C-10.61510127 26.64517201 -11.2872072 24.32845649 -12 22 C-12.0928125 23.3303125 -12.0928125 23.3303125 -12.1875 24.6875 C-13.18995864 28.77444675 -14.84024514 30.30264829 -18 33 C-18.99 33.495 -18.99 33.495 -20 34 C-20.33 34.99 -20.66 35.98 -21 37 C-21.66 37 -22.32 37 -23 37 C-22.649375 38.03125 -22.29875 39.0625 -21.9375 40.125 C-20.9918432 44.03371478 -20.95494293 46.16812407 -22 50 C-22.66 50.99 -23.32 51.98 -24 53 C-24.39387788 55.32387947 -24.73486085 57.65793749 -25 60 C-25.66 60 -26.32 60 -27 60 C-27.37715517 53.58836207 -27.37715517 53.58836207 -25.4375 50.5625 C-23.38706141 46.90737034 -24.26177436 43.92182369 -25 40 C-25.12375 38.3603125 -25.12375 38.3603125 -25.25 36.6875 C-25.74431193 33.78767083 -25.74431193 33.78767083 -28.4375 32.375 C-29.283125 31.92125 -30.12875 31.4675 -31 31 C-32.3125 28.8125 -32.3125 28.8125 -33 27 C-31.9790625 27.5259375 -31.9790625 27.5259375 -30.9375 28.0625 C-27.12901724 29.27797322 -24.85492894 29.03257025 -21 28 C-17.91422496 25.91542329 -17.91422496 25.91542329 -16 23 C-16.07533247 20.3727086 -16.07533247 20.3727086 -17 18 C-17 17.01 -17 16.02 -17 15 C-16.01 15.66 -15.02 16.32 -14 17 C-9.78821757 17.46797583 -7.71400886 17.46565795 -4.125 15.125 C-0.92487793 11.92487793 -0.79725812 9.79488542 -0.4375 5.375 C-0.35371094 4.37210938 -0.26992188 3.36921875 -0.18359375 2.3359375 C-0.09271484 1.17964844 -0.09271484 1.17964844 0 0 Z " fill="#AB554E" transform="translate(48,4)"/>
<path d="M0 0 C0.99 0.33 1.98 0.66 3 1 C2.74385063 5.35453922 2.42722153 7.49609768 -0.4375 10.875 C-3 13 -3 13 -5 14 C-5.33 14.99 -5.66 15.98 -6 17 C-6.66 17 -7.32 17 -8 17 C-7.649375 18.03125 -7.29875 19.0625 -6.9375 20.125 C-5.9918432 24.03371478 -5.95494293 26.16812407 -7 30 C-7.66 30.99 -8.32 31.98 -9 33 C-9.39387788 35.32387947 -9.73486085 37.65793749 -10 40 C-10.66 40 -11.32 40 -12 40 C-12.37715517 33.58836207 -12.37715517 33.58836207 -10.4375 30.5625 C-8.38706141 26.90737034 -9.26177436 23.92182369 -10 20 C-10.12375 18.3603125 -10.12375 18.3603125 -10.25 16.6875 C-10.74431193 13.78767083 -10.74431193 13.78767083 -13.4375 12.375 C-14.283125 11.92125 -15.12875 11.4675 -16 11 C-17.3125 8.8125 -17.3125 8.8125 -18 7 C-17.319375 7.350625 -16.63875 7.70125 -15.9375 8.0625 C-12.12901724 9.27797322 -9.85492894 9.03257025 -6 8 C-2.88094953 5.42339309 -1.2818632 3.8455896 0 0 Z " fill="#F0C94C" transform="translate(33,24)"/>
<path d="M0 0 C0.66 0 1.32 0 2 0 C3.62243819 4.77187704 4.33814883 8.09345428 3 13 C2.01 14.485 2.01 14.485 1 16 C0.60612212 18.32387947 0.26513915 20.65793749 0 23 C-0.66 23 -1.32 23 -2 23 C-2.37960954 16.54663774 -2.37960954 16.54663774 -0.4375 13.75 C1.88304556 9.31069544 0.7024563 4.8325608 0 0 Z " fill="#395268" transform="translate(23,41)"/>
<path d="M0 0 C0.66 0.33 1.32 0.66 2 1 C1.319375 1.804375 1.319375 1.804375 0.625 2.625 C-1.21688312 5.31698302 -2.07971933 7.88520388 -3 11 C-3.66 10.01 -4.32 9.02 -5 8 C-4.06400328 3.83056007 -3.62383901 2.41589267 0 0 Z " fill="#FAD874" transform="translate(18,14)"/>
<path d="M0 0 C0.99 0 1.98 0 3 0 C3.33 1.65 3.66 3.3 4 5 C2.35 5 0.7 5 -1 5 C-0.67 3.35 -0.34 1.7 0 0 Z " fill="#C8564A" transform="translate(38,25)"/>
<path d="M0 0 C0.66 0 1.32 0 2 0 C1.34 2.97 0.68 5.94 0 9 C-0.33 9 -0.66 9 -1 9 C-1.09765625 2.84765625 -1.09765625 2.84765625 -1 1 C-0.67 0.67 -0.34 0.34 0 0 Z " fill="#E77864" transform="translate(29,7)"/>
<path d="M0 0 C1.98 0.495 1.98 0.495 4 1 C4 1.99 4 2.98 4 4 C2.35 4 0.7 4 -1 4 C-0.67 2.68 -0.34 1.36 0 0 Z " fill="#E3BE4B" transform="translate(23,37)"/>
</svg>
