<?xml version="1.0" encoding="UTF-8"?>
<svg version="1.1" xmlns="http://www.w3.org/2000/svg" width="1408" height="768">
<path d="M0 0 C464.64 0 929.28 0 1408 0 C1408 253.44 1408 506.88 1408 768 C943.36 768 478.72 768 0 768 C0 514.56 0 261.12 0 0 Z " fill="#FEFEFE" transform="translate(0,0)"/>
<path d="M0 0 C14.25407722 11.92610209 22.76473827 27.60026657 25 46 C21.04 46 17.08 46 13 46 C12.835 44.68 12.67 43.36 12.5 42 C10.23332626 30.65044076 3.84561317 17.96743144 -5.60546875 11.109375 C-12.40036942 6.59778103 -18.58825137 3.04772657 -27 4 C-28.98239527 5.86124923 -28.98239527 5.86124923 -30 8 C-28.91138672 8.40025391 -28.91138672 8.40025391 -27.80078125 8.80859375 C-15.5531148 14.01854949 -7.07265337 23.94474685 -2 36 C-0.52197832 39.80062718 0 41.88657176 0 46 C-1.00417969 46.03738281 -2.00835938 46.07476562 -3.04296875 46.11328125 C-19.03376656 46.82529463 -32.52432449 50.01621633 -46 59 C-44.42025391 59.12955078 -44.42025391 59.12955078 -42.80859375 59.26171875 C-19.73180834 61.40150243 -0.30084554 70.16136913 14.75 88.25 C16.73973437 90.72076905 17.02234111 91.62175985 16.83203125 94.84375 C14.19006048 104.86587387 7.62811056 113.25572114 1 121 C0.55527344 121.60070312 0.11054687 122.20140625 -0.34765625 122.8203125 C-7.4760848 132.19408705 -19.76595152 139.81897286 -31 143 C-32.65 143 -34.3 143 -36 143 C-33.69 147.62 -31.38 152.24 -29 157 C-32.3 157 -35.6 157 -39 157 C-34.73236647 169.4347126 -29.19312673 180.7206149 -22.78125 192.17773438 C-12.84493404 209.96437689 -7.7214887 226.66415915 -12.625 246.9375 C-16.37428783 259.10329259 -23.91229397 272.73632869 -35.3671875 279.37109375 C-35.90601563 279.57863281 -36.44484375 279.78617187 -37 280 C-36.154375 279.030625 -35.30875 278.06125 -34.4375 277.0625 C-28.09646644 269.95948867 -28.09646644 269.95948867 -23 262 C-23.97839844 262.11601562 -24.95679688 262.23203125 -25.96484375 262.3515625 C-36.54511011 263.07980109 -36.54511011 263.07980109 -41 259.7734375 C-43.1968788 257.27378374 -45.16984692 254.77746809 -47 252 C-49.98923954 253.41346395 -52.65443778 255.06174394 -55.375 256.9375 C-66.75582061 264.58690402 -77.58614401 265.03574272 -91 264 C-94.78055335 263.2057661 -97.72108237 262.01779547 -101 260 C-101.7115625 259.5875 -102.423125 259.175 -103.15625 258.75 C-108.78408634 255.05410748 -112.78847482 250.39331825 -115 244 C-116.44105484 235.4540111 -116.11077881 226.6047053 -111.5390625 219.0703125 C-106.43358293 212.20253541 -100.46850092 208.102416 -93 204 C-93.48210938 203.19175781 -93.96421875 202.38351562 -94.4609375 201.55078125 C-95.09257813 200.48214844 -95.72421875 199.41351563 -96.375 198.3125 C-97.00148438 197.25675781 -97.62796875 196.20101562 -98.2734375 195.11328125 C-102.04970997 188.30402975 -103.11281379 182.55395247 -101.5703125 174.85546875 C-99.40437774 168.07689515 -94.60851891 162.31869521 -88.625 158.5 C-81.33783117 155.32609639 -71.46357985 155.78469658 -63.88671875 157.84765625 C-57.99087201 160.48691997 -54.1719601 164.40517739 -51 170 C-49.07525228 175.77424315 -48.91578426 183.15078972 -51.1875 188.875 C-54.94618349 195.35548877 -58.7960255 198.9254965 -65.3125 202.375 C-65.95767578 202.72949219 -66.60285156 203.08398438 -67.26757812 203.44921875 C-68.83900941 204.3105959 -70.41867975 205.15691451 -72 206 C-68.20686366 211.58567334 -63.79844663 216.34621985 -58.97949219 221.04736328 C-56.4796017 223.49298323 -54.11306042 225.94862483 -51.9375 228.6875 C-50.9784375 229.8321875 -50.9784375 229.8321875 -50 231 C-49.34 231 -48.68 231 -48 231 C-44.90657034 223.37154238 -43.1510262 216.15310222 -42 208 C-38.04 208.33 -34.08 208.66 -30 209 C-30.52276721 215.48618571 -31.76266374 221.06979512 -33.9375 227.1875 C-34.20240234 227.95513672 -34.46730469 228.72277344 -34.74023438 229.51367188 C-35.25275742 230.99782671 -35.76869864 232.48080697 -36.28857422 233.96240234 C-37.22075237 236.63225781 -38.11346315 239.31469273 -39 242 C-38.35933594 242.6290625 -37.71867188 243.258125 -37.05859375 243.90625 C-31.81386016 249.09626953 -26.75821515 254.35946681 -22 260 C-21.54625 259.01 -21.0925 258.02 -20.625 257 C-20.24214844 256.1646875 -20.24214844 256.1646875 -19.8515625 255.3125 C-14.4031865 240.51691012 -15.4020387 223.36593529 -21.84570312 209.13183594 C-25.2197041 201.85731792 -29.03271326 194.89103458 -33.125 188 C-36.02345648 183.00344978 -38.38628971 178.02437982 -40.4375 172.625 C-40.6845166 171.98304688 -40.9315332 171.34109375 -41.18603516 170.6796875 C-42.84641371 166.09737406 -43.53543354 161.81653962 -44 157 C-46.64 157 -49.28 157 -52 157 C-50.23570801 152.02790438 -47.6060834 147.56561939 -45 143 C-46.16015625 142.90460938 -47.3203125 142.80921875 -48.515625 142.7109375 C-53.05123988 142.13451151 -56.69777735 140.69008951 -60.75 138.625 C-61.44101807 138.2748584 -62.13203613 137.9247168 -62.84399414 137.56396484 C-69.98079118 133.75932226 -75.41963641 128.78432425 -81 123 C-82.19882812 121.83017578 -82.19882812 121.83017578 -83.421875 120.63671875 C-100.05119609 103.57732901 -108.55763622 78.45745902 -108.35375977 54.99291992 C-107.77340118 34.63080141 -99.54337837 17.14746063 -85 3 C-60.40178639 -17.3112153 -26.08086294 -18.55022967 0 0 Z " fill="#E12572" transform="translate(738,185)"/>
<path d="M0 0 C0.75852264 0.00209473 1.51704529 0.00418945 2.29855347 0.00634766 C26.36392423 0.14250786 47.76277884 5.3267767 68.0625 18.5 C65.90440736 25.04631439 63.66031538 31.55960885 61.375 38.0625 C61.05466797 38.97580078 60.73433594 39.88910156 60.40429688 40.83007812 C59.62431678 43.05360346 58.84370838 45.27690598 58.0625 47.5 C54.41810424 46.13774031 50.99677965 44.47467735 47.5456543 42.68237305 C26.74048346 31.92844121 1.1325458 26.18356261 -22.03515625 32.46484375 C-30.34807799 35.42974854 -36.52527734 39.76370418 -40.9375 47.5 C-43.78186372 53.60209518 -44.08443991 59.77644625 -42.09765625 66.2265625 C-38.29718643 74.69764339 -32.0381871 79.05409566 -23.62890625 82.51171875 C-14.72599421 85.78085771 -5.73408314 88.34285217 3.48535156 90.53173828 C13.30870809 92.87222378 22.86122482 95.60115299 32.375 99 C33.38167725 99.35545898 34.38835449 99.71091797 35.42553711 100.07714844 C52.04224044 106.18084899 64.77078606 114.91657212 72.8125 131 C78.13570278 145.90496779 78.30323078 162.61498795 71.765625 177.109375 C69.52031149 181.57940282 67.24929588 185.63698158 64.0625 189.5 C63.23878906 190.50740234 63.23878906 190.50740234 62.3984375 191.53515625 C49.98924347 205.23807477 29.97652666 211.50482566 12.01187134 212.62823486 C6.67551756 212.86008147 1.34063805 212.88838607 -4 212.875 C-5.22547546 212.87418427 -5.22547546 212.87418427 -6.47570801 212.87335205 C-19.01545836 212.83499199 -30.8643755 212.16064765 -42.9375 208.5 C-43.66195312 208.29101074 -44.38640625 208.08202148 -45.1328125 207.86669922 C-58.82208832 203.83066052 -72.61812596 197.56138969 -82.9375 187.5 C-80.94417932 181.10703339 -78.52275386 175.02953606 -75.75 168.9375 C-75.38197266 168.11958984 -75.01394531 167.30167969 -74.63476562 166.45898438 C-73.73954987 164.47090782 -72.8390835 162.48519692 -71.9375 160.5 C-68.32822266 161.79807343 -65.59845352 163.35993564 -62.5625 165.6875 C-41.31364347 180.84270228 -11.93470017 186.72251977 13.7421875 182.9609375 C16.60550479 182.29793019 19.30188799 181.50346739 22.0625 180.5 C22.87847656 180.20996094 23.69445312 179.91992188 24.53515625 179.62109375 C30.87414776 177.09184672 36.11868366 173.67413774 39.72265625 167.7890625 C42.5096616 160.94749251 42.35283439 152.45702547 40.06640625 145.4453125 C36.54455169 138.88049578 31.69213446 135.59204726 25.0625 132.5 C24.0621875 132.02175781 23.061875 131.54351562 22.03125 131.05078125 C11.65162182 126.51564554 0.76433978 123.97903004 -10.19140625 121.21484375 C-34.0311618 115.19192115 -58.44716069 108.90081747 -71.9375 86.5 C-78.42141793 73.43819431 -79.21939267 56.29902222 -75.0390625 42.33203125 C-68.44899911 25.3894924 -57.83247032 14.70069147 -41.671875 6.9296875 C-28.12670078 1.35815032 -14.47318867 -0.09236977 0 0 Z " fill="#030303" transform="translate(535.9375,238.5)"/>
<path d="M0 0 C7.61421358 -0.32648661 15.2276913 -0.5741588 22.84733963 -0.72537041 C26.38741894 -0.79801441 29.92266517 -0.89620828 33.45996094 -1.05615234 C58.19619397 -2.14552451 58.19619397 -2.14552451 64.40844727 2.93701172 C67.08037521 5.7369143 69.08716349 8.75721293 70.93238831 12.1479187 C72.75856605 15.31595224 75.12060531 18.05734472 77.4375 20.875 C78.34405914 22.03780814 79.24943758 23.20154061 80.15234375 24.3671875 C83.21162275 28.29120841 86.352545 32.14658675 89.5 36 C93.53226615 40.93928967 97.5181114 45.90819604 101.4375 50.9375 C106.11776259 56.9392485 110.94452265 62.81154016 115.79956055 68.67236328 C119.98250077 73.73323289 124.06363631 78.86305328 128.09765625 84.04296875 C131.78569781 88.76453228 135.61740682 93.35530384 139.47265625 97.94140625 C142.18880428 101.22849112 144.81927012 104.57245958 147.4375 107.9375 C151.94121082 113.71946291 156.6146546 119.33149874 161.37109375 124.90625 C167.3945757 131.97145296 173.18813727 139.2257735 178.98046875 146.48046875 C183.9164652 152.63853009 188.90715969 158.7474034 194.04443359 164.73876953 C195.4461043 166.3851062 196.82444276 168.04923998 198.203125 169.71484375 C200.0213183 171.89808219 201.90899659 173.93728535 203.921875 175.94140625 C210.47583062 182.83559144 211.79342936 188.26537512 211.625 197.8125 C211.4961265 201.21734342 211.29705793 204.60577042 211 208 C187.17380345 210.20950157 187.17380345 210.20950157 180.73925781 206.80322266 C177.26884174 203.7291739 175.10999649 199.9082112 172.99755859 195.82470703 C171.5298779 193.14006545 169.61838131 190.93591107 167.625 188.625 C163.89887899 184.09756264 160.19483612 179.5529642 156.5 175 C152.84125755 170.49346176 149.17874938 165.99023822 145.5 161.5 C128.94680631 141.28189258 128.94680631 141.28189258 122.6484375 133.109375 C120.0129761 129.73698364 117.28748811 126.43947705 114.5703125 123.1328125 C111.61630304 119.53733442 108.68306148 115.92507222 105.75 112.3125 C105.20239014 111.63807861 104.65478027 110.96365723 104.09057617 110.26879883 C102.96416758 108.88153082 101.83778438 107.49424219 100.71142578 106.10693359 C98.99483172 103.99363734 97.27691621 101.88142231 95.55859375 99.76953125 C90.39875523 93.42667276 85.25101754 87.07580001 80.15234375 80.68359375 C75.63914011 75.05642333 71.07995571 69.4663546 66.52490234 63.87304688 C65.19901424 62.24445041 63.87475365 60.61452922 62.55078125 58.984375 C58.1253011 53.54985359 53.62992459 48.18047919 49.08984375 42.84179688 C46.1399459 39.36719731 43.2431728 35.85524306 40.375 32.3125 C28.63560538 17.96666785 17.47432063 7.81148382 0 1 C0 0.67 0 0.34 0 0 Z " fill="#030303" transform="translate(722,241)"/>
<path d="M0 0 C4.26107387 3.43847274 7.29284308 7.44102925 9.0234375 12.6328125 C9.7565716 22.27634563 8.91125336 28.59997723 2.5324707 36.13037109 C-0.05153584 38.70309011 -3.08777751 40.3132085 -6.2890625 42.0078125 C-6.93423828 42.36230469 -7.57941406 42.71679688 -8.24414062 43.08203125 C-9.81557191 43.9434084 -11.39524225 44.78972701 -12.9765625 45.6328125 C-9.18342616 51.21848584 -4.77500913 55.97903235 0.04394531 60.68017578 C2.5438358 63.12579573 4.91037708 65.58143733 7.0859375 68.3203125 C8.045 69.465 8.045 69.465 9.0234375 70.6328125 C9.6834375 70.6328125 10.3434375 70.6328125 11.0234375 70.6328125 C14.11686716 63.00435488 15.8724113 55.78591472 17.0234375 47.6328125 C20.9834375 47.9628125 24.9434375 48.2928125 29.0234375 48.6328125 C28.50067029 55.11899821 27.26077376 60.70260762 25.0859375 66.8203125 C24.82103516 67.58794922 24.55613281 68.35558594 24.28320312 69.14648438 C23.77068008 70.63063921 23.25473886 72.11361947 22.73486328 73.59521484 C21.80268513 76.26507031 20.90997435 78.94750523 20.0234375 81.6328125 C20.66410156 82.261875 21.30476562 82.8909375 21.96484375 83.5390625 C33.72469364 95.1762314 33.72469364 95.1762314 37.0234375 99.6328125 C37.0234375 100.2928125 37.0234375 100.9528125 37.0234375 101.6328125 C23.13554512 103.16644479 23.13554512 103.16644479 17.95703125 99.40625 C15.76567298 96.9088754 13.81908883 94.4260479 12.0234375 91.6328125 C9.03419796 93.04627645 6.36899972 94.69455644 3.6484375 96.5703125 C-7.73238311 104.21971652 -18.56270651 104.66855522 -31.9765625 103.6328125 C-35.75711585 102.8385786 -38.69764487 101.65060797 -41.9765625 99.6328125 C-42.688125 99.2203125 -43.3996875 98.8078125 -44.1328125 98.3828125 C-49.76064884 94.68691998 -53.76503732 90.02613075 -55.9765625 83.6328125 C-57.41761734 75.0868236 -57.08734131 66.2375178 -52.515625 58.703125 C-47.41014543 51.83534791 -41.44506342 47.7352285 -33.9765625 43.6328125 C-34.45867188 42.82457031 -34.94078125 42.01632812 -35.4375 41.18359375 C-36.06914063 40.11496094 -36.70078125 39.04632813 -37.3515625 37.9453125 C-38.29128906 36.36169922 -38.29128906 36.36169922 -39.25 34.74609375 C-43.02627247 27.93684225 -44.08937629 22.18676497 -42.546875 14.48828125 C-40.38094024 7.70970765 -35.58508141 1.95150771 -29.6015625 -1.8671875 C-20.84289558 -5.68199751 -8.1358933 -4.85932194 0 0 Z " fill="#060606" transform="translate(678.9765625,345.3671875)"/>
<path d="M0 0 C11.22 0 22.44 0 34 0 C34 57.09 34 114.18 34 173 C30.44326608 169.44326608 27.09879028 165.89975513 23.875 162.0625 C23.40416992 161.50473877 22.93333984 160.94697754 22.44824219 160.37231445 C18.50999601 155.67555736 14.70595929 150.87931148 10.96826172 146.02172852 C10.5507666 145.48217529 10.13327148 144.94262207 9.703125 144.38671875 C9.10693281 143.60285797 9.10693281 143.60285797 8.49869633 142.80316162 C7.03272494 140.95676614 7.03272494 140.95676614 5.23271084 139.38041687 C1.18620435 135.50810833 -0.47340257 132.62489236 -0.84178162 126.98876953 C-0.86195045 124.62015102 -0.84373603 122.25100881 -0.79467773 119.8828125 C-0.79569992 118.5844194 -0.79672211 117.28602631 -0.79777527 115.94828796 C-0.7997737 112.40892888 -0.75878836 108.87124974 -0.70975757 105.33227921 C-0.66582723 101.62614849 -0.6618731 97.91997396 -0.65357971 94.21362305 C-0.63187256 87.20470037 -0.57449825 80.19654722 -0.50413328 73.18796253 C-0.42573509 65.20496663 -0.3873647 57.22193285 -0.35226524 49.23864746 C-0.27920968 32.8252442 -0.15090263 16.41290021 0 0 Z " fill="#060606" transform="translate(899,240)"/>
<path d="M0 0 C0.66 0 1.32 0 2 0 C3.35382149 1.48738235 4.63139886 3.04430551 5.875 4.625 C10.08745871 9.89569388 14.42529611 15.03479261 18.83740234 20.13916016 C19.32031738 20.69909668 19.80323242 21.2590332 20.30078125 21.8359375 C20.72528564 22.32626465 21.14979004 22.8165918 21.5871582 23.32177734 C22.053396 23.87559082 22.51963379 24.4294043 23 25 C23.67977402 25.59609573 24.35954803 26.19219147 25.05992126 26.80635071 C28.14128048 31.87871221 27.52239325 36.95625144 27.45410156 42.77661133 C27.45468567 44.07456635 27.45526978 45.37252136 27.45587158 46.70980835 C27.45701773 50.26127451 27.43352532 53.81219862 27.40557575 57.36353898 C27.38054509 61.07775504 27.3782188 64.79198397 27.37347412 68.50627136 C27.36104918 75.53629401 27.32823428 82.56606739 27.28807616 89.59598035 C27.24334331 97.6007455 27.22136763 105.60552266 27.20129442 113.61038172 C27.15950101 130.07375667 27.08615492 146.53678835 27 163 C16.11 163 5.22 163 -6 163 C-6.13563912 143.37162847 -6.2460819 123.7436386 -6.31087303 104.1149168 C-6.34176135 95.0001868 -6.38384518 85.88576949 -6.45263672 76.77124023 C-6.51259329 68.82348548 -6.55118565 60.87595727 -6.56453097 52.92798263 C-6.57232742 48.72263995 -6.59054422 44.51794514 -6.63438034 40.3128109 C-6.67537938 36.34736947 -6.68761483 32.38283717 -6.67864609 28.4172039 C-6.68028466 26.9688598 -6.6920574 25.52048245 -6.71523285 24.07232285 C-6.86098227 14.48749493 -5.47682081 7.95586631 0 0 Z " fill="#010101" transform="translate(761,286)"/>
<path d="M0 0 C0.33 0 0.66 0 1 0 C1.00410889 0.61818604 1.00821777 1.23637207 1.01245117 1.87329102 C1.14798541 13.55634205 1.53664965 24.09602266 5.84375 35.0390625 C7 38 7 38 7.53125 40.8359375 C7.6859375 41.55007813 7.840625 42.26421875 8 43 C8.66 43.33 9.32 43.66 10 44 C11.19049085 46.21384382 12.30152598 48.41793531 13.375 50.6875 C15.13642372 54.39350432 16.89248946 57.94813945 19.2265625 61.33203125 C21 64 21 64 21 66 C22.485 66.495 22.485 66.495 24 67 C25.61328125 68.70703125 25.61328125 68.70703125 27.3125 70.8125 C29.52302847 73.44161791 31.51869756 75.55593592 34.4375 77.375 C35.283125 77.91125 36.12875 78.4475 37 79 C37 79.66 37 80.32 37 81 C38.0209375 81.37125 38.0209375 81.37125 39.0625 81.75 C41.39104417 82.74086986 43.39948594 83.78054124 45.5625 85.0625 C48.22078431 86.5608057 50.0501226 87.52801962 53 88 C53 88.66 53 89.32 53 90 C54.0725 89.9175 55.145 89.835 56.25 89.75 C60 90 60 90 62.4375 92 C62.953125 92.66 63.46875 93.32 64 94 C63.505 95.093125 63.01 96.18625 62.5 97.3125 C60.81160094 100.79966245 60.81160094 100.79966245 61 104 C61 104.66 61 105.32 61 106 C64.37705625 105.46274105 67.696686 104.88935377 71 104 C70.484375 102.96875 69.96875 101.9375 69.4375 100.875 C67.86604974 97.26947626 67.96889338 94.84321557 69 91 C69.99 91 70.98 91 72 91 C72.33 90.34 72.66 89.68 73 89 C74.55999428 88.58400152 76.12060808 88.17023924 77.68359375 87.765625 C82.68139032 86.11373945 87.45422462 83.63855732 92 81 C92.33 80.34 92.66 79.68 93 79 C93.99 79 94.98 79 96 79 C96.495 77.515 96.495 77.515 97 76 C97.99 76 98.98 76 100 76 C100.495 74.02 100.495 74.02 101 72 C101.66 72 102.32 72 103 72 C103 71.34 103 70.68 103 70 C103.66 70 104.32 70 105 70 C105 69.34 105 68.68 105 68 C105.99 68 106.98 68 108 68 C108.65598816 54.95958596 108.65598816 54.95958596 104 43 C103.55269531 42.16984375 103.10539063 41.3396875 102.64453125 40.484375 C94.59811203 26.07416577 81.71468035 19.38649879 67 13 C67 12.67 67 12.34 67 12 C69.64 12 72.28 12 75 12 C75 12.66 75 13.32 75 14 C76.0725 13.896875 77.145 13.79375 78.25 13.6875 C86.65530669 13.6725705 95.05768096 18.56873253 102 23 C102.515625 23.53625 103.03125 24.0725 103.5625 24.625 C105.01948843 26.23970355 105.01948843 26.23970355 107.7265625 26.7265625 C111.71668485 28.2788058 114.03180627 30.62219636 116.8125 33.75 C117.30169922 34.26304687 117.79089844 34.77609375 118.29492188 35.3046875 C121.43219154 38.7587216 123.06001796 41.29459211 123 46 C121.97156243 48.63701942 120.95356406 50.82391433 119.5625 53.25 C119.19850098 53.90677734 118.83450195 54.56355469 118.45947266 55.24023438 C115.19276675 60.9783965 111.32405929 66.01633844 107 71 C106.5565625 71.598125 106.113125 72.19625 105.65625 72.8125 C98.53484847 82.19190689 86.23306046 89.81925263 75 93 C73.35 93 71.7 93 70 93 C73.465 99.93 73.465 99.93 77 107 C73.7 107 70.4 107 67 107 C71.26763353 119.4347126 76.80687327 130.7206149 83.21875 142.17773438 C93.15506596 159.96437689 98.2785113 176.66415915 93.375 196.9375 C89.62571217 209.10329259 82.08770603 222.73632869 70.6328125 229.37109375 C70.09398437 229.57863281 69.55515625 229.78617188 69 230 C69.845625 229.030625 70.69125 228.06125 71.5625 227.0625 C79.96889372 217.29591828 79.96889372 217.29591828 86 206 C86.2990625 205.27167969 86.598125 204.54335938 86.90625 203.79296875 C92.74728958 186.62139406 88.99729598 168.79791153 81.25 153.0625 C78.6437307 147.92273148 75.81682946 142.9537703 72.875 138 C69.97654352 133.00344978 67.61371029 128.02437982 65.5625 122.625 C65.3154834 121.98304688 65.0684668 121.34109375 64.81396484 120.6796875 C63.15358629 116.09737406 62.46456646 111.81653962 62 107 C59.36 107 56.72 107 54 107 C55.76429199 102.02790438 58.3939166 97.56561939 61 93 C59.83984375 92.90460938 58.6796875 92.80921875 57.484375 92.7109375 C52.94876012 92.13451151 49.30222265 90.69008951 45.25 88.625 C44.55898193 88.2748584 43.86796387 87.9247168 43.15600586 87.56396484 C36.01920882 83.75932226 30.58036359 78.78432425 25 73 C24.20078125 72.22011719 23.4015625 71.44023437 22.578125 70.63671875 C7.82213503 55.49910835 -1.43780333 33.0221108 -1.1875 12.0625 C-1.18685547 11.00998047 -1.18621094 9.95746094 -1.18554688 8.87304688 C-1.14061993 1.14061993 -1.14061993 1.14061993 0 0 Z " fill="#B82A67" transform="translate(632,235)"/>
<path d="M0 0 C7 0 7 0 8.94140625 1.80859375 C9.47636719 2.67613281 10.01132812 3.54367187 10.5625 4.4375 C14.03516258 9.67341373 17.77907089 14.49473274 21.8125 19.3125 C31.22047727 30.63468704 40.16266507 42.21688676 49 54 C49.33 36.51 49.66 19.02 50 1 C51.98 1 53.96 1 56 1 C56 22.78 56 44.56 56 67 C50 67 50 67 47.17578125 64.2109375 C46.20252556 62.9465643 45.24914743 61.66672668 44.3125 60.375 C43.79631104 59.69638916 43.28012207 59.01777832 42.74829102 58.31860352 C41.67633539 56.90901377 40.61152002 55.49396709 39.55371094 54.07373047 C37.23821411 50.98324805 34.83576575 47.96384184 32.4375 44.9375 C31.53306336 43.78577683 30.62941848 42.63343145 29.7265625 41.48046875 C29.27958008 40.90989746 28.83259766 40.33932617 28.37207031 39.75146484 C27.91928711 39.17348145 27.46650391 38.59549805 27 38 C25.10500484 35.58267478 23.20892999 33.16619965 21.3125 30.75 C20.89734131 30.22011475 20.48218262 29.69022949 20.05444336 29.14428711 C16.07043593 24.06787804 12.03189678 19.03987098 8 14 C7.67 31.49 7.34 48.98 7 67 C4.69 67 2.38 67 0 67 C0 44.89 0 22.78 0 0 Z " fill="#0C0C0C" transform="translate(714,490)"/>
<path d="M0 0 C2.91947196 1.30817224 4.87676935 2.6624471 7.03125 5.01953125 C7.86825439 5.92626587 7.86825439 5.92626587 8.72216797 6.85131836 C9.60219482 7.82210327 9.60219482 7.82210327 10.5 8.8125 C11.10859863 9.47451416 11.71719727 10.13652832 12.34423828 10.81860352 C13.60587843 12.19168036 14.86513425 13.5669516 16.12207031 14.94433594 C18.49301365 17.53967433 20.87996567 20.11995705 23.26757812 22.69995117 C25.51548727 25.12983717 27.75782788 27.56482039 30 30 C24.83194147 36.55876872 24.83194147 36.55876872 21 38.3125 C20.360625 38.61800781 19.72125 38.92351562 19.0625 39.23828125 C12.23408867 41.76013771 4.07030312 42.33825792 -2.86328125 40.05859375 C-8.84446535 37.23193045 -12.37763378 34.32198798 -15.3125 28.3125 C-16.52500507 22.47043012 -16.07155261 17.18596732 -13.4375 11.8125 C-9.46889725 7.23334298 -5.04004463 3.36002975 0 0 Z " fill="#FAFAFA" transform="translate(652,397)"/>
<path d="M0 0 C15.51 0 31.02 0 47 0 C47 1.98 47 3.96 47 6 C33.8 6 20.6 6 7 6 C7 13.92 7 21.84 7 30 C18.55 30 30.1 30 42 30 C42 31.98 42 33.96 42 36 C30.45 36 18.9 36 7 36 C7 44.25 7 52.5 7 61 C20.53 61 34.06 61 48 61 C48 62.98 48 64.96 48 67 C32.16 67 16.32 67 0 67 C0 44.89 0 22.78 0 0 Z " fill="#111112" transform="translate(462,490)"/>
<path d="M0 0 C15.18 0 30.36 0 46 0 C46 1.98 46 3.96 46 6 C32.8 6 19.6 6 6 6 C6 13.92 6 21.84 6 30 C17.88 30 29.76 30 42 30 C42 31.98 42 33.96 42 36 C30.12 36 18.24 36 6 36 C6 44.25 6 52.5 6 61 C19.53 61 33.06 61 47 61 C47 62.65 47 64.3 47 66 C31.49 66 15.98 66 0 66 C0 44.22 0 22.44 0 0 Z " fill="#070808" transform="translate(632,490)"/>
<path d="M0 0 C1.22589844 -0.0309375 1.22589844 -0.0309375 2.4765625 -0.0625 C9.66647792 -0.10800579 15.8439407 1.2292938 21.875 5.25 C21.215 7.23 20.555 9.21 19.875 11.25 C19.33875 10.96125 18.8025 10.6725 18.25 10.375 C12.61227969 7.70450091 7.71971113 6.86371272 1.5625 6.875 C0.88123047 6.87371094 0.19996094 6.87242187 -0.50195312 6.87109375 C-5.84730052 6.98672565 -9.52464699 7.73615256 -13.4375 11.4375 C-15.60574603 15.05124338 -15.71837198 17.09639617 -15.125 21.25 C-11.93334382 26.6512643 -7.45997122 28.57442527 -1.57421875 30.27734375 C-0.33285156 30.57769531 0.90851562 30.87804687 2.1875 31.1875 C10.61892822 33.33614096 18.16616394 35.29235605 23.875 42.25 C25.5637963 47.31638889 26.07404288 52.56359477 23.8515625 57.54296875 C19.53604322 63.89703443 13.90750083 65.90583306 6.875 68.25 C-4.45464398 69.24440041 -15.01790157 67.33329878 -24.125 60.25 C-23.75 57.8125 -23.75 57.8125 -23.125 55.25 C-22.135 54.755 -22.135 54.755 -21.125 54.25 C-19.15095268 55.13059423 -17.21831916 56.1051165 -15.3125 57.125 C-7.97225481 61.04587631 -1.41115391 62.09481737 6.875 61.25 C10.69099762 60.06211687 13.91574441 58.81076899 16.05859375 55.32421875 C17.34476599 52.0564797 17.36236469 49.72247342 16.875 46.25 C12.10679434 41.17694185 7.13735061 39.85792156 0.5 38.25 C-7.88627887 36.2010796 -15.12881449 33.73973435 -21.125 27.25 C-23.70236963 22.99474545 -23.7554297 19.10191465 -23.125 14.25 C-21.27070775 8.03201402 -17.78141948 4.30787874 -12.125 1.25 C-8.05236081 -0.1075464 -4.26602786 0.02617195 0 0 Z " fill="#101111" transform="translate(907.125,489.75)"/>
<path d="M0 0 C2.31 0 4.62 0 7 0 C10.37860242 7.3156419 13.5842111 14.6827354 16.64453125 22.13671875 C17.05918137 23.14217239 17.47383148 24.14762604 17.90104675 25.18354797 C19.2067209 28.35077093 20.50965843 31.51911097 21.8125 34.6875 C22.70489625 36.85359056 23.59747278 39.01960686 24.49023438 41.18554688 C26.66223801 46.45617581 28.83200461 51.72772116 31 57 C37.21722738 43.44714167 43.28928954 29.84632531 49.125 16.125 C49.80184831 14.53896218 50.47893149 12.95302458 51.15625 11.3671875 C52.77351272 7.57926168 54.38769828 3.79003993 56 0 C58.31 0 60.62 0 63 0 C62.25845779 3.50919619 60.94991509 6.61637285 59.515625 9.8984375 C58.73977051 11.68060669 58.73977051 11.68060669 57.94824219 13.4987793 C57.38217135 14.7908572 56.81609038 16.08293066 56.25 17.375 C55.67055971 18.70403531 55.09146313 20.03322053 54.51269531 21.36254883 C53.3002374 24.14645048 52.08627383 26.92968787 50.87109375 29.71240234 C48.10956474 36.03789891 45.35950002 42.36836476 42.6126709 48.70025635 C41.76027457 50.66383156 40.90610213 52.62662719 40.05175781 54.58935547 C39.27590332 56.37623779 39.27590332 56.37623779 38.484375 58.19921875 C38.02772461 59.24940186 37.57107422 60.29958496 37.10058594 61.3815918 C35.94547317 64.03677844 35.94547317 64.03677844 35 67 C32.36 67 29.72 67 27 67 C26.67950684 66.23373291 26.35901367 65.46746582 26.02880859 64.67797852 C24.76718007 61.66269974 23.50482876 58.64772541 22.24203491 55.63293457 C21.6646671 54.25421006 21.08753844 52.87538538 20.51065063 51.49645996 C17.04622148 43.21656474 13.55779492 34.94785849 10.01953125 26.69921875 C9.37249137 25.18744739 8.72551786 23.67564762 8.07861328 22.16381836 C7.13649344 19.96230089 6.19254224 17.7616679 5.24261475 15.56350708 C4.35884722 13.51828583 3.48157092 11.47038896 2.60546875 9.421875 C2.10168701 8.25237305 1.59790527 7.08287109 1.07885742 5.87792969 C0 3 0 3 0 0 Z " fill="#0E0E0E" transform="translate(537,490)"/>
<path d="M0 0 C17.49 0 34.98 0 53 0 C53 1.98 53 3.96 53 6 C45.41 6 37.82 6 30 6 C30 26.13 30 46.26 30 67 C27.69 67 25.38 67 23 67 C23 46.87 23 26.74 23 6 C15.41 6 7.82 6 0 6 C0 4.02 0 2.04 0 0 Z " fill="#0D0E0E" transform="translate(803,490)"/>
<path d="M0 0 C9.51559548 0.21361541 17.47994874 5.89617478 24.0625 12.3125 C31.49216161 21.02862052 37.28061174 31.75257802 37.0625 43.3125 C41.0225 43.3125 44.9825 43.3125 49.0625 43.3125 C49.0625 43.6425 49.0625 43.9725 49.0625 44.3125 C35.5325 44.3125 22.0025 44.3125 8.0625 44.3125 C8.0625 43.9825 8.0625 43.6525 8.0625 43.3125 C13.3425 43.3125 18.6225 43.3125 24.0625 43.3125 C18.61166389 25.14304631 10.79610907 14.67371983 -5.9375 5.3125 C-3.5496563 0.37762301 -3.5496563 0.37762301 0 0 Z " fill="#FDF0F9" transform="translate(713.9375,187.6875)"/>
<path d="M0 0 C3.3020291 1.62204938 5.17219129 2.90879761 7.375 5.8125 C8.61916216 10.16706754 8.41558982 13.80212346 6.9375 18.0625 C3.29851892 23.57966487 -1.79051042 27.65419283 -8 30 C-9.9765625 29.84375 -9.9765625 29.84375 -12 29 C-13.66796875 27.00390625 -13.66796875 27.00390625 -15.1875 24.5625 C-15.95126953 23.35787109 -15.95126953 23.35787109 -16.73046875 22.12890625 C-19.36682822 17.70793421 -19.62726149 14.10401814 -19 9 C-14.52173794 0.36335174 -9.27997532 -1.22210963 0 0 Z " fill="#F8F8F8" transform="translate(668,353)"/>
<path d="M0 0 C2.64 0 5.28 0 8 0 C8 0.66 8 1.32 8 2 C9.0725 1.896875 10.145 1.79375 11.25 1.6875 C19.67309984 1.6725389 30.67890968 6.83323433 36.75 12.6875 C37.1625 13.120625 37.575 13.55375 38 14 C38.99 14.33 39.98 14.66 41 15 C42.61328125 16.63671875 42.61328125 16.63671875 44.3125 18.6875 C46.56221942 21.37280339 48.82691689 23.7927966 51.4375 26.125 C54 29 54 29 54.3359375 31.81640625 C53.95467886 35.42949682 52.96217502 37.65608287 51.1875 40.8125 C50.66542969 41.76769531 50.14335938 42.72289062 49.60546875 43.70703125 C48 46 48 46 45 47 C44.67 48.65 44.34 50.3 44 52 C43.01 52.33 42.02 52.66 41 53 C41.04640625 52.16597656 41.0928125 51.33195312 41.140625 50.47265625 C41.38452316 42.86826018 40.80336211 37.58228922 37 31 C36.55269531 30.16597656 36.10539063 29.33195312 35.64453125 28.47265625 C27.56983263 14.07674584 14.72288616 7.39006029 0 1 C0 0.67 0 0.34 0 0 Z " fill="#CF1961" transform="translate(699,247)"/>
<path d="M0 0 C2.50656805 2.50656805 3.04774039 4.65193525 4.25 8 C7.61390545 16.9189166 12.25363996 25.1474994 16.88574219 33.45898438 C26.86749633 51.51074228 32.40625791 68.43512402 27.375 88.9375 C23.62571217 101.10329259 16.08770603 114.73632869 4.6328125 121.37109375 C4.09398437 121.57863281 3.55515625 121.78617187 3 122 C4.2684375 120.5459375 4.2684375 120.5459375 5.5625 119.0625 C13.96889372 109.29591828 13.96889372 109.29591828 20 98 C20.2990625 97.27167969 20.598125 96.54335938 20.90625 95.79296875 C26.74728958 78.62139406 22.99729598 60.79791153 15.25 45.0625 C12.6437307 39.92273148 9.81682946 34.9537703 6.875 30 C2.59476154 22.67453259 -0.25467996 15.00718344 -3 7 C-2.34 6.67 -1.68 6.34 -1 6 C-0.34 7.65 0.32 9.3 1 11 C0.67 7.37 0.34 3.74 0 0 Z " fill="#B72A67" transform="translate(698,343)"/>
<path d="M0 0 C0.66 0.33 1.32 0.66 2 1 C0.700625 2.36125 0.700625 2.36125 -0.625 3.75 C-14.537461 20.22182882 -15.14638795 41.52677711 -14 62 C-13.5942189 66.71187821 -12.92932193 71.36168787 -12 76 C-14.50308512 72.93499781 -16.05354543 69.90176466 -17.5625 66.25 C-17.97628906 65.26515625 -18.39007812 64.2803125 -18.81640625 63.265625 C-21.25537152 56.53633469 -22.36673816 50.4102124 -22.3125 43.25 C-22.30686035 42.46359131 -22.3012207 41.67718262 -22.29541016 40.86694336 C-22.02501894 27.78241786 -18.16990291 16.04595622 -8.9375 6.5 C-6.16719053 3.92038105 -3.49619385 1.54243846 0 0 Z " fill="#FDE3F6" transform="translate(663,193)"/>
<path d="M0 0 C2.0043398 1.92030039 3.42809039 3.69827521 5 6 C1.67217346 5.39224549 -0.30417075 4.22123437 -2.9375 2.125 C-8.19911303 -2.03826439 -12.96630271 -4.5077482 -19.5 -6.125 C-20.15097656 -6.29386719 -20.80195312 -6.46273437 -21.47265625 -6.63671875 C-40.21437734 -11.44520073 -56.70019349 -10.29063683 -74 -1 C-74.68835938 -0.88011719 -75.37671875 -0.76023438 -76.0859375 -0.63671875 C-78.15558681 -0.19113137 -78.15558681 -0.19113137 -78.9453125 1.75390625 C-79.29335938 2.49511719 -79.64140625 3.23632812 -80 4 C-81.57811706 5.69083971 -83.2089434 7.33324075 -84.875 8.9375 C-91.7862083 15.61145786 -96.33987161 22.18241797 -100 31 C-100.33 31.66 -100.66 32.32 -101 33 C-101.66 33 -102.32 33 -103 33 C-103.13277344 34.21558594 -103.26554688 35.43117187 -103.40234375 36.68359375 C-103.58050091 38.26825484 -103.75889875 39.8528889 -103.9375 41.4375 C-104.02451172 42.23994141 -104.11152344 43.04238281 -104.20117188 43.86914062 C-104.88671875 49.88671875 -104.88671875 49.88671875 -106 51 C-106.23678716 53.69235776 -106.42198025 56.36498156 -106.5625 59.0625 C-106.60568359 59.82111328 -106.64886719 60.57972656 -106.69335938 61.36132812 C-106.79973633 63.24065438 -106.90039934 65.12030244 -107 67 C-107.33 67 -107.66 67 -108 67 C-108.69975935 42.68984192 -103.936765 23.3923129 -87.15234375 5.09375 C-63.45948398 -17.95411358 -26.48977168 -18.63501336 0 0 Z " fill="#D14281" transform="translate(738,185)"/>
<path d="M0 0 C2.02081924 0.95723017 4.03120677 1.93988057 6 3 C6 3.99 6 4.98 6 6 C6.5775 6.0825 7.155 6.165 7.75 6.25 C10.6539336 7.21797787 12.03740604 8.68694284 14 11 C14 11.66 14 12.32 14 13 C14.66 13 15.32 13 16 13 C16 13.66 16 14.32 16 15 C16.66 15 17.32 15 18 15 C26.94841063 33.20635748 26.94841063 33.20635748 25 41 C27.97 41 30.94 41 34 41 C33.62746094 39.81921875 33.25492188 38.6384375 32.87109375 37.421875 C32.39269875 35.86474619 31.91486334 34.30744539 31.4375 32.75 C31.0672168 31.58404297 31.0672168 31.58404297 30.68945312 30.39453125 C30.46064453 29.64042969 30.23183594 28.88632813 29.99609375 28.109375 C29.78138428 27.41811523 29.5666748 26.72685547 29.34545898 26.01464844 C28.9508236 23.71321296 29.28915577 22.20383318 30 20 C30.82022612 22.35171843 31.6312654 24.7059851 32.4375 27.0625 C32.66759766 27.71927734 32.89769531 28.37605469 33.13476562 29.05273438 C34.60434128 33.37626855 35.48646211 37.46079726 36 42 C32.04 42 28.08 42 24 42 C23.7525 40.02 23.7525 40.02 23.5 38 C21.23332626 26.65044076 14.84561317 13.96743144 5.39453125 7.109375 C-1.40036942 2.59778103 -7.58825137 -0.95227343 -16 0 C-17.98239527 1.86124923 -17.98239527 1.86124923 -19 4 C-18.27425781 4.26683594 -17.54851563 4.53367188 -16.80078125 4.80859375 C-4.5531148 10.01854949 3.92734663 19.94474685 9 32 C10.47802168 35.80062718 11 37.88657176 11 42 C9.99582031 42.03738281 8.99164062 42.07476562 7.95703125 42.11328125 C-6.57331379 42.60963581 -6.57331379 42.60963581 -20.171875 47.16015625 C-22 48 -22 48 -25 47 C-17.55856644 41.68469032 -11.03044659 40.61108705 -2.125 39.875 C-1.15046875 39.78863281 -0.1759375 39.70226562 0.828125 39.61328125 C3.21826446 39.40238659 5.60877625 39.19815363 8 39 C6.83151718 34.46024855 5.54698604 30.77069496 3.0625 26.75 C2.55847656 25.91984375 2.05445313 25.0896875 1.53515625 24.234375 C0.10528929 22.00300013 0.10528929 22.00300013 -1.62890625 20.390625 C-3 19 -3 19 -4 16 C-6.78016041 14.16031805 -6.78016041 14.16031805 -10.0625 12.4375 C-12.07259832 11.34683989 -14.06151159 10.21338264 -16 9 C-16 8.34 -16 7.68 -16 7 C-17.32 6.34 -18.64 5.68 -20 5 C-20 3.02 -20 1.04 -20 -1 C-13.51290198 -5.15174273 -6.56079566 -2.63858086 0 0 Z " fill="#D05189" transform="translate(727,189)"/>
<path d="M0 0 C3.95239347 1.5846426 6.32305707 4.15284752 9.1875 7.25 C10.06792969 8.18328125 10.94835937 9.1165625 11.85546875 10.078125 C14.25430766 13.3464884 15.02041367 14.95809388 15 19 C13.97156243 21.63701942 12.95356406 23.82391433 11.5625 26.25 C11.19850098 26.90677734 10.83450195 27.56355469 10.45947266 28.24023438 C7.19276675 33.9783965 3.32405929 39.01633844 -1 44 C-1.4434375 44.598125 -1.886875 45.19625 -2.34375 45.8125 C-8.9655864 54.53394306 -19.84970251 61.27822425 -30 65 C-30.66 65 -31.32 65 -32 65 C-32 64.34 -32 63.68 -32 63 C-31.01 63 -30.02 63 -29 63 C-28.67 62.01 -28.34 61.02 -28 60 C-25.3125 58.46484375 -25.3125 58.46484375 -22 56.9375 C-17.74298406 55.28234049 -17.74298406 55.28234049 -15 52 C-14.01 52 -13.02 52 -12 52 C-11.67 51.01 -11.34 50.02 -11 49 C-10.01 49 -9.02 49 -8 49 C-7.67 47.68 -7.34 46.36 -7 45 C-6.34 45 -5.68 45 -5 45 C-5 44.34 -5 43.68 -5 43 C-4.34 43 -3.68 43 -3 43 C-3 42.34 -3 41.68 -3 41 C-2.01 41 -1.02 41 0 41 C0 40.01 0 39.02 0 38 C0.97850195 36.97895449 1.97980427 35.9793879 3 35 C3.33 34.01 3.66 33.02 4 32 C4.598125 31.443125 5.19625 30.88625 5.8125 30.3125 C9.435134 26.48285834 11.60503382 22.33794494 12.484375 17.1328125 C11.78331501 12.59853742 9.32195682 10.72779013 6 7.75 C3.95930769 5.86557692 1.97110186 3.95936911 0 2 C0 1.34 0 0.68 0 0 Z " fill="#AC3066" transform="translate(740,262)"/>
<path d="M0 0 C0.33 0 0.66 0 1 0 C1 2.31 1 4.62 1 7 C2.65 7 4.3 7 6 7 C6.33 6.01 6.66 5.02 7 4 C7.01981934 4.65371582 7.03963867 5.30743164 7.06005859 5.98095703 C7.44573406 18.09883766 7.83231376 30.04615743 10 42 C7.49691488 38.93499781 5.94645457 35.90176466 4.4375 32.25 C4.02371094 31.26515625 3.60992188 30.2803125 3.18359375 29.265625 C0.59039844 22.11080231 -0.28481518 16.0481939 -0.125 8.5 C-0.11597656 7.67757812 -0.10695313 6.85515625 -0.09765625 6.0078125 C-0.07436865 4.00507917 -0.03850959 2.00249846 0 0 Z " fill="#FCA8D3" transform="translate(641,227)"/>
<path d="M0 0 C3.43772727 3.43772727 3.97127774 7.10960984 4.125 11.875 C4.08375 12.90625 4.0425 13.9375 4 15 C7.96 15 11.92 15 16 15 C16 15.33 16 15.66 16 16 C2.47 16 -11.06 16 -25 16 C-25 15.67 -25 15.34 -25 15 C-19.72 15 -14.44 15 -9 15 C-9.66 12.03 -10.32 9.06 -11 6 C-10.278125 6.04125 -9.55625 6.0825 -8.8125 6.125 C-5.70637456 5.98694998 -3.71749747 5.50972081 -1 4 C-0.11306697 1.95894361 -0.11306697 1.95894361 0 0 Z " fill="#E780AC" transform="translate(747,216)"/>
<path d="M0 0 C0.66 0.33 1.32 0.66 2 1 C0.77023437 2.21236328 0.77023437 2.21236328 -0.484375 3.44921875 C-1.57305137 4.52850998 -2.6615855 5.60794469 -3.75 6.6875 C-4.28882813 7.21794922 -4.82765625 7.74839844 -5.3828125 8.29492188 C-11.96659825 14.83856259 -16.45000148 21.44773083 -20 30 C-20.33 30.66 -20.66 31.32 -21 32 C-21.66 32 -22.32 32 -23 32 C-23.13277344 33.21558594 -23.26554688 34.43117187 -23.40234375 35.68359375 C-23.58050091 37.26825484 -23.75889875 38.8528889 -23.9375 40.4375 C-24.02451172 41.23994141 -24.11152344 42.04238281 -24.20117188 42.86914062 C-24.88671875 48.88671875 -24.88671875 48.88671875 -26 50 C-26.23678716 52.69235776 -26.42198025 55.36498156 -26.5625 58.0625 C-26.60568359 58.82111328 -26.64886719 59.57972656 -26.69335938 60.36132812 C-26.79973633 62.24065438 -26.90039934 64.12030244 -27 66 C-27.33 66 -27.66 66 -28 66 C-28.6937251 41.89947626 -24.01738664 22.8902391 -7.640625 4.55859375 C-5.61632134 2.63550527 -3.69067848 1.71223842 -1 1 C-0.67 0.67 -0.34 0.34 0 0 Z " fill="#D33175" transform="translate(658,186)"/>
<path d="M0 0 C-0.96099609 0.73089844 -0.96099609 0.73089844 -1.94140625 1.4765625 C-10.56610023 8.5459838 -16.9246428 18.12186159 -18.78515625 29.34765625 C-19.69526958 40.58341905 -19.54547274 50.44622918 -15.77734375 61.1796875 C-14.99465751 64.01938329 -14.96099593 65.29466866 -16 68 C-16.33 68 -16.66 68 -17 68 C-20.88553639 57.50905174 -22.34930063 47.35281264 -22.3125 36.1875 C-22.32861328 35.19041016 -22.34472656 34.19332031 -22.36132812 33.16601562 C-22.36497315 27.68754227 -22.11890363 23.71250402 -19 19 C-18.34 18.34 -17.68 17.68 -17 17 C-16.3574765 14.93125966 -16.3574765 14.93125966 -16 13 C-15.34 13 -14.68 13 -14 13 C-14 12.01 -14 11.02 -14 10 C-13.34 10 -12.68 10 -12 10 C-11.67 8.35 -11.34 6.7 -11 5 C-10.01 4.67 -9.02 4.34 -8 4 C-8 3.34 -8 2.68 -8 2 C-3.61016949 -1.20338983 -3.61016949 -1.20338983 0 0 Z " fill="#CA2A6D" transform="translate(661,195)"/>
<path d="M0 0 C0.33 0 0.66 0 1 0 C1.86553979 20.98933996 -2.22717692 37.01452687 -16.68554688 52.76220703 C-19.24101587 55.44578007 -21.50880224 57.65530421 -25 59 C-23.7315625 57.5459375 -23.7315625 57.5459375 -22.4375 56.0625 C-9.70088354 41.12783862 -4.76762303 28.61409188 -4 9 C-3.67 9 -3.34 9 -3 9 C-3 12.96 -3 16.92 -3 21 C-2.34 21 -1.68 21 -1 21 C-0.67 14.07 -0.34 7.14 0 0 Z " fill="#A65683" transform="translate(726,406)"/>
<path d="M0 0 C0.66 0 1.32 0 2 0 C2 0.66 2 1.32 2 2 C2.99 2 3.98 2 5 2 C5.103125 2.639375 5.20625 3.27875 5.3125 3.9375 C5.539375 4.618125 5.76625 5.29875 6 6 C6.99 6.33 7.98 6.66 9 7 C10.61328125 8.70703125 10.61328125 8.70703125 12.3125 10.8125 C14.52302847 13.44161791 16.51869756 15.55593592 19.4375 17.375 C20.7059375 18.179375 20.7059375 18.179375 22 19 C22 19.66 22 20.32 22 21 C22.680625 21.2475 23.36125 21.495 24.0625 21.75 C26.39104417 22.74086986 28.39948594 23.78054124 30.5625 25.0625 C33.22078431 26.5608057 35.0501226 27.52801962 38 28 C38 28.66 38 29.32 38 30 C39.98 30.33 41.96 30.66 44 31 C44 31.33 44 31.66 44 32 C29.7994664 31.75931299 19.42239351 22.67392211 10 13 C1.32525698 3.97577093 1.32525698 3.97577093 0 0 Z " fill="#AE2760" transform="translate(647,295)"/>
<path d="M0 0 C2.98363137 2.82659814 5.37285008 5.20331686 7 9 C7.33 9.33 7.66 9.66 8 10 C8.09924514 11.58736053 8.13079908 13.17907251 8.1328125 14.76953125 C8.13474609 16.22649414 8.13474609 16.22649414 8.13671875 17.71289062 C8.13285156 18.73576172 8.12898437 19.75863281 8.125 20.8125 C8.12886719 21.82376953 8.13273438 22.83503906 8.13671875 23.87695312 C8.13542969 24.85212891 8.13414062 25.82730469 8.1328125 26.83203125 C8.13168457 27.72639893 8.13055664 28.6207666 8.12939453 29.54223633 C8.00862026 31.83626391 7.64445753 33.80199665 7 36 C6.34 36 5.68 36 5 36 C4.91959473 35.22922119 4.83918945 34.45844238 4.75634766 33.66430664 C4.384572 30.12978612 4.00484583 26.59616197 3.625 23.0625 C3.49867188 21.85013672 3.37234375 20.63777344 3.2421875 19.38867188 C2.52744201 12.79514472 1.59747011 6.43849909 0 0 Z " fill="#B92568" transform="translate(718,391)"/>
<path d="M0 0 C0.33 0 0.66 0 1 0 C1 1.98 1 3.96 1 6 C0.34 6 -0.32 6 -1 6 C-1.34553728 8.66557328 -1.67863797 11.33146443 -2 14 C-2.08886475 14.72227783 -2.17772949 15.44455566 -2.26928711 16.1887207 C-3.04187375 23.07329363 -3.14965174 29.88946989 -3.125 36.8125 C-3.12886719 37.91787109 -3.13273438 39.02324219 -3.13671875 40.16210938 C-3.13542969 41.22880859 -3.13414062 42.29550781 -3.1328125 43.39453125 C-3.13168457 44.35206299 -3.13055664 45.30959473 -3.12939453 46.29614258 C-3.07286498 49.01223242 -3.07286498 49.01223242 -2.42919922 51.6628418 C-2 54 -2 54 -3 57 C-5.705003 49.55686222 -6.51201027 42.83070239 -6.4375 34.9375 C-6.43282715 33.84856445 -6.4281543 32.75962891 -6.42333984 31.63769531 C-6.22258154 20.5617126 -4.33396404 10.22971693 0 0 Z " fill="#D42B72" transform="translate(654,208)"/>
<path d="M0 0 C0.66 0 1.32 0 2 0 C1.72367434 3.45100047 1.14515747 4.8418775 -1.23046875 7.4296875 C-18.84984026 22 -18.84984026 22 -27 22 C-27 21.34 -27 20.68 -27 20 C-26.01 20 -25.02 20 -24 20 C-23.67 19.01 -23.34 18.02 -23 17 C-20.3125 15.46484375 -20.3125 15.46484375 -17 13.9375 C-12.74298406 12.28234049 -12.74298406 12.28234049 -10 9 C-9.01 9 -8.02 9 -7 9 C-6.67 8.01 -6.34 7.02 -6 6 C-5.01 6 -4.02 6 -3 6 C-2.67 4.68 -2.34 3.36 -2 2 C-1.34 2 -0.68 2 0 2 C0 1.34 0 0.68 0 0 Z " fill="#B52E65" transform="translate(735,305)"/>
<path d="M0 0 C18.2281434 -0.44278891 34.70080918 2.23733172 50 13 C52.0043398 14.92030039 53.42809039 16.69827521 55 19 C51.67217346 18.39224549 49.69582925 17.22123437 47.0625 15.125 C35.89524748 6.50322416 24.46892319 2.978828 10.5625 1.875 C9.54478516 1.78863281 8.52707031 1.70226562 7.47851562 1.61328125 C4.98612558 1.40265674 2.4933879 1.19839929 0 1 C0 0.67 0 0.34 0 0 Z " fill="#CB6091" transform="translate(688,172)"/>
<path d="M0 0 C15.9225588 0.83898935 31.13326292 5.14404362 44.47265625 14.0546875 C46.3828125 16.30078125 46.3828125 16.30078125 47.47265625 18.0546875 C46.15265625 17.7246875 44.83265625 17.3946875 43.47265625 17.0546875 C43.47265625 16.3946875 43.47265625 15.7346875 43.47265625 15.0546875 C42.59996094 14.7865625 41.72726562 14.5184375 40.828125 14.2421875 C37.59126625 13.09666357 34.79411465 11.6966839 31.78515625 10.0546875 C26.09660405 7.13565571 20.79873772 5.77695664 14.47265625 5.0546875 C14.47265625 4.3946875 14.47265625 3.7346875 14.47265625 3.0546875 C13.34085938 3.07789063 12.2090625 3.10109375 11.04296875 3.125 C9.5612045 3.14375651 8.07943313 3.16195684 6.59765625 3.1796875 C5.85128906 3.19644531 5.10492187 3.21320313 4.3359375 3.23046875 C2.38071164 3.2480834 0.42523604 3.15788939 -1.52734375 3.0546875 C-2.18734375 2.3946875 -2.84734375 1.7346875 -3.52734375 1.0546875 C-2.52734375 0.0546875 -2.52734375 0.0546875 0 0 Z " fill="#B83F76" transform="translate(692.52734375,243.9453125)"/>
<path d="M0 0 C0.66 0.33 1.32 0.66 2 1 C2 2.32 2 3.64 2 5 C0.99582031 5.03738281 -0.00835938 5.07476562 -1.04296875 5.11328125 C-15.57331379 5.60963581 -15.57331379 5.60963581 -29.171875 10.16015625 C-31 11 -31 11 -34 10 C-25.68663195 4.06187996 -18.1518336 3.50176653 -8.25976562 2.7890625 C-6.88401367 2.67691406 -6.88401367 2.67691406 -5.48046875 2.5625 C-4.64410889 2.50191406 -3.80774902 2.44132813 -2.94604492 2.37890625 C-2.3038501 2.25386719 -1.66165527 2.12882813 -1 2 C-0.67 1.34 -0.34 0.68 0 0 Z " fill="#CF3E7A" transform="translate(736,226)"/>
<path d="M0 0 C2.3223428 2.8762349 3.86565842 5.63780422 5.25 9.0625 C5.60578125 9.91972656 5.9615625 10.77695312 6.328125 11.66015625 C7 14 7 14 6 17 C5.67 17 5.34 17 5 17 C4.71125 15.88625 4.4225 14.7725 4.125 13.625 C3.30758671 9.99708908 3.30758671 9.99708908 1 8 C1.5259375 9.85625 1.5259375 9.85625 2.0625 11.75 C2.95593273 14.903292 3.00881294 16.86774164 2 20 C1.01761592 17.58459694 0.03899782 15.16778178 -0.9375 12.75 C-1.35418945 11.72712891 -1.35418945 11.72712891 -1.77929688 10.68359375 C-3.06975756 7.48076362 -4.21800044 4.36162466 -5 1 C-2.525 1.495 -2.525 1.495 0 2 C0 1.34 0 0.68 0 0 Z " fill="#B7306C" transform="translate(718,384)"/>
<path d="M0 0 C0.33 0 0.66 0 1 0 C1.07347656 1.48886719 1.07347656 1.48886719 1.1484375 3.0078125 C1.63604652 12.10684451 2.55089648 20.99586163 4 30 C1.44921796 26.86983678 -0.20755571 23.70015975 -1.8125 20 C-2.27269531 18.96875 -2.73289062 17.9375 -3.20703125 16.875 C-4 14 -4 14 -3.13671875 11.625 C-2.76160156 11.08875 -2.38648438 10.5525 -2 10 C-1.67 10 -1.34 10 -1 10 C-0.67 6.7 -0.34 3.4 0 0 Z " fill="#FC7EB8" transform="translate(647,239)"/>
<path d="M0 0 C4.25361614 6.38042421 6.30884575 14.3973032 7 22 C3.04 22 -0.92 22 -5 22 C-6.24981171 16.00090377 -7.32338209 10.08956121 -8 4 C-4.52304619 7.63499716 -3.51635931 12.1117985 -3 17 C-3.33 18.32 -3.66 19.64 -4 21 C-1.03 21 1.94 21 5 21 C4.6390625 19.81921875 4.278125 18.6384375 3.90625 17.421875 C3.43721233 15.86466995 2.96847819 14.30737346 2.5 12.75 C2.26152344 11.97269531 2.02304687 11.19539062 1.77734375 10.39453125 C1.55175781 9.64042969 1.32617188 8.88632813 1.09375 8.109375 C0.77954102 7.07248535 0.77954102 7.07248535 0.45898438 6.01464844 C0 4 0 4 0 0 Z " fill="#CA3F78" transform="translate(756,209)"/>
<path d="M0 0 C-0.96099609 0.73089844 -0.96099609 0.73089844 -1.94140625 1.4765625 C-11.74702629 9.51395598 -17.04691852 19.41347492 -19 32 C-19.33 32 -19.66 32 -20 32 C-20.53699151 24.88486245 -18.69707634 19.55004254 -16 13 C-15.34 13 -14.68 13 -14 13 C-14 12.01 -14 11.02 -14 10 C-13.34 10 -12.68 10 -12 10 C-11.67 8.35 -11.34 6.7 -11 5 C-10.01 4.67 -9.02 4.34 -8 4 C-8 3.34 -8 2.68 -8 2 C-3.61016949 -1.20338983 -3.61016949 -1.20338983 0 0 Z " fill="#C23E78" transform="translate(661,195)"/>
<path d="M0 0 C2 2 2 2 2.1953125 3.9453125 C2.13020833 5.96354167 2.06510417 7.98177083 2 10 C-1.55353929 11.1845131 -4.27013478 11.26641894 -8 11 C-9.9375 9.625 -9.9375 9.625 -11 8 C-11 7.34 -11 6.68 -11 6 C-10.278125 6.04125 -9.55625 6.0825 -8.8125 6.125 C-5.70637456 5.98694998 -3.71749747 5.50972081 -1 4 C-0.11306697 1.95894361 -0.11306697 1.95894361 0 0 Z " fill="#FAA1C7" transform="translate(747,216)"/>
<path d="M0 0 C1.1628134 3.39541514 0.81351928 5.27751909 -0.375 8.625 C-1.84875665 13.13335556 -2.47962728 17.34383536 -2.7890625 22.06640625 C-3 24 -3 24 -4 25 C-4.23678716 27.69235776 -4.42198025 30.36498156 -4.5625 33.0625 C-4.60568359 33.82111328 -4.64886719 34.57972656 -4.69335938 35.36132812 C-4.79973633 37.24065438 -4.90039934 39.12030244 -5 41 C-5.33 41 -5.66 41 -6 41 C-6.41795662 26.47987756 -5.71120158 13.598099 0 0 Z " fill="#C1487B" transform="translate(636,211)"/>
<path d="M0 0 C2 2 2 2 2.125 5.125 C2.08375 6.07375 2.0425 7.0225 2 8 C-0.96278714 9.64599285 -3.61306808 10.65262237 -7 11 C-10 9 -10 9 -10.6875 6.875 C-10.790625 6.25625 -10.89375 5.6375 -11 5 C-10.01 5 -9.02 5 -8 5 C-8 5.66 -8 6.32 -8 7 C-4.48797488 5.79271391 -4.48797488 5.79271391 -1 4 C0.04289755 1.93109581 0.04289755 1.93109581 0 0 Z " fill="#FCD8EB" transform="translate(745,212)"/>
<path d="M0 0 C0.66 0 1.32 0 2 0 C2.08797281 3.18732254 2.14071341 6.37432788 2.1875 9.5625 C2.22520508 10.90538086 2.22520508 10.90538086 2.26367188 12.27539062 C2.32655603 17.99784892 1.65798531 21.91424859 -1 27 C-1.7520293 24.74391211 -2.0607344 23.28631931 -1.5625 20.9375 C-0.78353968 16.86959612 -0.6364136 12.81903328 -0.4375 8.6875 C-0.39431641 7.85154297 -0.35113281 7.01558594 -0.30664062 6.15429688 C-0.20114693 4.10303065 -0.10012685 2.0515352 0 0 Z " fill="#FFD9F1" transform="translate(727,406)"/>
<path d="M0 0 C4.56204662 4.3219389 7.34729614 7.63613741 8 14 C7.01 15.485 7.01 15.485 6 17 C5.34 17 4.68 17 4 17 C3.32844651 14.73050898 2.6626037 12.4596039 2 10.1875 C1.443125 8.29064453 1.443125 8.29064453 0.875 6.35546875 C0 3 0 3 0 0 Z " fill="#C9246C" transform="translate(718,391)"/>
<path d="M0 0 C2.31 0 4.62 0 7 0 C6.01 0.33 5.02 0.66 4 1 C3.67 1.99 3.34 2.98 3 4 C1.35 4 -0.3 4 -2 4 C-1.690625 5.03125 -1.38125 6.0625 -1.0625 7.125 C-0.12497188 10.38972557 0.50772702 13.63613462 1 17 C-0.98 17 -2.96 17 -5 17 C-4.67 16.34 -4.34 15.68 -4 15 C-3.01 15 -2.02 15 -1 15 C-1.515625 13.96875 -2.03125 12.9375 -2.5625 11.875 C-4.13395026 8.26947626 -4.03110662 5.84321557 -3 2 C-2.01 2 -1.02 2 0 2 C0 1.34 0 0.68 0 0 Z " fill="#C11F63" transform="translate(704,324)"/>
<path d="M0 0 C0.33 0 0.66 0 1 0 C1 1.98 1 3.96 1 6 C0.34 6 -0.32 6 -1 6 C-1.77662055 11.99107278 -2.42085333 17.98673249 -3 24 C-3.66 24 -4.32 24 -5 24 C-5 25.98 -5 27.96 -5 30 C-5.33 30 -5.66 30 -6 30 C-6.20001106 24.09967379 -5.56429649 19.02375099 -4.125 13.3125 C-3.95097656 12.57966797 -3.77695312 11.84683594 -3.59765625 11.09179688 C-2.66328986 7.25397344 -1.58953851 3.63016228 0 0 Z " fill="#C83E7A" transform="translate(654,208)"/>
<path d="M0 0 C0.33 0 0.66 0 1 0 C1.3690205 19.00455581 1.3690205 19.00455581 -1 27 C-3.45605371 24.44725126 -3.98802939 23.14109357 -4.29296875 19.546875 C-4.25816406 18.29390625 -4.22335937 17.0409375 -4.1875 15.75 C-4.16042969 14.48671875 -4.13335938 13.2234375 -4.10546875 11.921875 C-4.07066406 10.95765625 -4.03585937 9.9934375 -4 9 C-3.67 9 -3.34 9 -3 9 C-3 12.96 -3 16.92 -3 21 C-2.34 21 -1.68 21 -1 21 C-0.67 14.07 -0.34 7.14 0 0 Z " fill="#B04578" transform="translate(726,406)"/>
<path d="M0 0 C6.92029757 1.59699175 13.08195217 6.12292826 17 12 C13.67217346 11.39224549 11.69582925 10.22123437 9.0625 8.125 C6.73607996 6.30734846 4.56026696 4.74348906 2 3.25 C1.34 2.8375 0.68 2.425 0 2 C0 1.34 0 0.68 0 0 Z " fill="#CA4E85" transform="translate(726,179)"/>
<path d="M0 0 C0.33 0 0.66 0 1 0 C1 2.64 1 5.28 1 8 C4.24849977 6.27773504 4.24849977 6.27773504 5 3 C5.66 3 6.32 3 7 3 C7.19878036 6.57804656 7.04108797 8.99208089 5 12 C4.01 12.33 3.02 12.66 2 13 C1.34 12.67 0.68 12.34 0 12 C0 8.04 0 4.08 0 0 Z " fill="#FCCCEA" transform="translate(642,222)"/>
<path d="M0 0 C3.20697537 4.14107983 5.69824031 8.56210768 8.25 13.125 C8.72179687 13.94871094 9.19359375 14.77242188 9.6796875 15.62109375 C10.12054687 16.40871094 10.56140625 17.19632812 11.015625 18.0078125 C11.42071289 18.72598145 11.82580078 19.44415039 12.24316406 20.18408203 C12.49291992 20.78333496 12.74267578 21.38258789 13 22 C12.67 22.66 12.34 23.32 12 24 C9 19.25 9 19.25 9 17 C8.01 16.67 7.02 16.34 6 16 C5.21430949 14.29767057 4.43764208 12.58866126 3.76171875 10.83984375 C2.97416826 8.79239661 2.97416826 8.79239661 1.3125 6.3125 C0 4 0 4 0 0 Z " fill="#AD376B" transform="translate(705,360)"/>
<path d="M0 0 C-3.91296573 1.30432191 -7.32116326 0.88063169 -11.40625 0.64453125 C-14.15577818 0.7400824 -14.15577818 0.7400824 -15.84375 3.01171875 C-16.2253125 3.66785156 -16.606875 4.32398438 -17 5 C-16.34 5 -15.68 5 -15 5 C-15.33 5.99 -15.66 6.98 -16 8 C-18 6 -18 6 -18.125 2.875 C-18.08375 1.92625 -18.0425 0.9775 -18 0 C-12.20711773 -3.70744466 -6.08211018 -1.98599516 0 0 Z " fill="#D44285" transform="translate(725,188)"/>
<path d="M0 0 C5.94907401 4.20788161 9.53274933 9.62969626 13 16 C13 16.66 13 17.32 13 18 C12.01 18 11.02 18 10 18 C9.52949219 17.09636719 9.05898438 16.19273437 8.57421875 15.26171875 C7.94560122 14.07016014 7.31667891 12.87876228 6.6875 11.6875 C6.37876953 11.09259766 6.07003906 10.49769531 5.75195312 9.88476562 C4.11916424 6.80824762 2.51622006 4.39234462 0 2 C0 1.34 0 0.68 0 0 Z " fill="#C5497F" transform="translate(743,191)"/>
<path d="M0 0 C0.66 0 1.32 0 2 0 C0.125 4.75 0.125 4.75 -1 7 C1.64 7 4.28 7 7 7 C7.33 9.64 7.66 12.28 8 15 C7.34 14.67 6.68 14.34 6 14 C6 12.35 6 10.7 6 9 C4.2984375 9.0309375 4.2984375 9.0309375 2.5625 9.0625 C-1 9 -1 9 -2 8 C-2.04080783 6.00041636 -2.04254356 3.99954746 -2 2 C-1.34 2 -0.68 2 0 2 C0 1.34 0 0.68 0 0 Z " fill="#F9CEE9" transform="translate(687,335)"/>
<path d="M0 0 C-0.33 0.99 -0.66 1.98 -1 3 C-4.25040883 4.268267 -7.79670715 4.29974946 -11.25 4.5625 C-12.32765625 4.64628906 -13.4053125 4.73007813 -14.515625 4.81640625 C-15.74539063 4.90728516 -15.74539063 4.90728516 -17 5 C-14.22005549 3.14670366 -12.21743449 2.31436395 -9.0625 1.375 C-8.20785156 1.11460937 -7.35320313 0.85421875 -6.47265625 0.5859375 C-4 0 -4 0 0 0 Z " fill="#CB4C87" transform="translate(687,173)"/>
<path d="M0 0 C0.33 0.66 0.66 1.32 1 2 C-1.31 2.66 -3.62 3.32 -6 4 C-6 6.64 -6 9.28 -6 12 C-9.12259437 8.87740563 -9.14293342 5.28533288 -10 1 C-6.7 0.67 -3.4 0.34 0 0 Z " fill="#F8CDE6" transform="translate(709,341)"/>
<path d="M0 0 C1.79244141 0.01740234 1.79244141 0.01740234 3.62109375 0.03515625 C5.41740234 0.04869141 5.41740234 0.04869141 7.25 0.0625 C8.17683594 0.07410156 9.10367188 0.08570313 10.05859375 0.09765625 C10.05859375 0.42765625 10.05859375 0.75765625 10.05859375 1.09765625 C9.1665625 1.29101562 8.27453125 1.484375 7.35546875 1.68359375 C6.185 1.94398438 5.01453125 2.204375 3.80859375 2.47265625 C2.6484375 2.72789062 1.48828125 2.983125 0.29296875 3.24609375 C-2.85310547 3.94701289 -2.85310547 3.94701289 -5.17578125 5.26171875 C-6.94140625 6.09765625 -6.94140625 6.09765625 -9.94140625 5.09765625 C-8.97203125 4.45828125 -8.00265625 3.81890625 -7.00390625 3.16015625 C-2.43141641 0.08072432 -2.43141641 0.08072432 0 0 Z " fill="#CA467F" transform="translate(711.94140625,230.90234375)"/>
<path d="M0 0 C1.32 0.33 2.64 0.66 4 1 C3.26394531 1.53109375 2.52789063 2.0621875 1.76953125 2.609375 C0.79371094 3.31578125 -0.18210937 4.0221875 -1.1875 4.75 C-2.63189453 5.79414063 -2.63189453 5.79414063 -4.10546875 6.859375 C-6.79129214 8.84565195 -9.40666793 10.89499188 -12 13 C-12 12.01 -12 11.02 -12 10 C-11.34 10 -10.68 10 -10 10 C-10 9.01 -10 8.02 -10 7 C-8.35 6.67 -6.7 6.34 -5 6 C-5 5.34 -5 4.68 -5 4 C-4.34 4 -3.68 4 -3 4 C-3 3.34 -3 2.68 -3 2 C-2.01 2 -1.02 2 0 2 C0 1.34 0 0.68 0 0 Z " fill="#FCD7F0" transform="translate(659,181)"/>
<path d="M0 0 C0.66 0 1.32 0 2 0 C5 6 8 12 11 18 C10.34 18 9.68 18 9 18 C9 17.34 9 16.68 9 16 C8.39671875 15.79375 7.7934375 15.5875 7.171875 15.375 C4.12457039 13.44577118 3.54500019 11.32543258 2.25 8 C1.82203125 6.9275 1.3940625 5.855 0.953125 4.75 C0 2 0 2 0 0 Z " fill="#C61F64" transform="translate(640,279)"/>
<path d="M0 0 C0.33 0 0.66 0 1 0 C1 2.64 1 5.28 1 8 C-2.96 8 -6.92 8 -11 8 C-11.33 7.01 -11.66 6.02 -12 5 C-8.04 5 -4.08 5 0 5 C0 3.35 0 1.7 0 0 Z " fill="#FA86B6" transform="translate(749,221)"/>
<path d="M0 0 C5.66442374 0.36504064 10.00703705 1.0554321 15 4 C15 4.99 15 5.98 15 7 C15.66 7.33 16.32 7.66 17 8 C13.6333939 8 12.88453864 7.46558258 10.1875 5.625 C6.8912746 3.47422816 3.82230849 2.05113483 0 1 C0 0.67 0 0.34 0 0 Z " fill="#CB558A" transform="translate(718,188)"/>
<path d="M0 0 C1.40185547 0.00966797 1.40185547 0.00966797 2.83203125 0.01953125 C4.28416016 0.04466797 4.28416016 0.04466797 5.765625 0.0703125 C6.74917969 0.07933594 7.73273437 0.08835938 8.74609375 0.09765625 C11.16951907 0.12118465 13.59244722 0.15405882 16.015625 0.1953125 C16.015625 0.5253125 16.015625 0.8553125 16.015625 1.1953125 C15.04882812 1.24429688 14.08203125 1.29328125 13.0859375 1.34375 C5.56571272 1.77560449 -1.63777779 2.41484306 -8.984375 4.1953125 C-8.984375 3.5353125 -8.984375 2.8753125 -8.984375 2.1953125 C-5.85508322 0.36461347 -3.60794354 -0.04399931 0 0 Z " fill="#FEDEF5" transform="translate(686.984375,170.8046875)"/>
<path d="M0 0 C0.97812873 3.05628064 1.00835683 4.85277447 0.00390625 7.890625 C-0.33930664 8.95410156 -0.33930664 8.95410156 -0.68945312 10.0390625 C-0.93630859 10.76867187 -1.18316406 11.49828125 -1.4375 12.25 C-1.68048828 12.99507813 -1.92347656 13.74015625 -2.17382812 14.5078125 C-2.77332981 16.34158235 -3.38544487 18.17122004 -4 20 C-4.99 19.01 -5.98 18.02 -7 17 C-6.34 17 -5.68 17 -5 17 C-3.29304267 11.34428139 -1.60665302 5.68507992 0 0 Z " fill="#FBD2F0" transform="translate(721,426)"/>
<path d="M0 0 C0 3 0 3 -1.375 4.6875 C-3 6 -3 6 -5 6 C-5 6.66 -5 7.32 -5 8 C-5.99 8 -6.98 8 -8 8 C-8 8.66 -8 9.32 -8 10 C-8.99 10 -9.98 10 -11 10 C-11 10.66 -11 11.32 -11 12 C-12.32 11.67 -13.64 11.34 -15 11 C-13.87851562 10.18595703 -13.87851562 10.18595703 -12.734375 9.35546875 C-11.74953125 8.64003906 -10.7646875 7.92460937 -9.75 7.1875 C-8.77546875 6.47980469 -7.8009375 5.77210938 -6.796875 5.04296875 C-4.51810991 3.37845179 -2.25234178 1.69998177 0 0 Z " fill="#FCD8EE" transform="translate(734,311)"/>
<path d="M0 0 C0.33 0 0.66 0 1 0 C1.48192771 5.42168675 1.48192771 5.42168675 -0.5625 7.875 C-3.80273788 9.3704944 -6.47606359 9.20330402 -10 9 C-10.33 8.01 -10.66 7.02 -11 6 C-10.278125 6.04125 -9.55625 6.0825 -8.8125 6.125 C-5.70637456 5.98694998 -3.71749747 5.50972081 -1 4 C-0.11306697 1.95894361 -0.11306697 1.95894361 0 0 Z " fill="#FBB8D6" transform="translate(747,216)"/>
<path d="M0 0 C0.33 0.99 0.66 1.98 1 3 C0.34 3.66 -0.32 4.32 -1 5 C-1.495 6.155 -1.99 7.31 -2.5 8.5 C-4 12 -4 12 -6 14 C-5.87952582 8.97294083 -5.75412763 5.90127449 -2.4375 1.9375 C-1.633125 1.298125 -0.82875 0.65875 0 0 Z " fill="#C82E6D" transform="translate(642,204)"/>
<path d="M0 0 C0.33 0.66 0.66 1.32 1 2 C-0.25 5.0625 -0.25 5.0625 -2 8 C-2.99 8.33 -3.98 8.66 -5 9 C-5.73323796 11.01508358 -5.73323796 11.01508358 -6 13 C-6.66 13 -7.32 13 -8 13 C-6.24385848 8.02426569 -3.74380523 3.74380523 0 0 Z " fill="#CA3E7E" transform="translate(663,195)"/>
<path d="M0 0 C0 0.66 0 1.32 0 2 C-3.37097383 3.49821059 -5.20442119 4 -9 4 C-8.649375 4.763125 -8.29875 5.52625 -7.9375 6.3125 C-7 9 -7 9 -8 12 C-12 5.25 -12 5.25 -12 3 C-10.37604003 2.49663233 -8.75079459 1.99741024 -7.125 1.5 C-6.22007812 1.2215625 -5.31515625 0.943125 -4.3828125 0.65625 C-2 0 -2 0 0 0 Z " fill="#FCCFEB" transform="translate(714,325)"/>
<path d="M0 0 C0.33 0.66 0.66 1.32 1 2 C0.09522263 3.46573934 -0.82434141 4.92235756 -1.75 6.375 C-2.26046875 7.18710937 -2.7709375 7.99921875 -3.296875 8.8359375 C-5.0673335 11.08555679 -6.36907419 11.95906848 -9 13 C-9 13.66 -9 14.32 -9 15 C-9.66 14.67 -10.32 14.34 -11 14 C-7.37 9.38 -3.74 4.76 0 0 Z " fill="#F9D2E9" transform="translate(746,296)"/>
<path d="M0 0 C0.33 0 0.66 0 1 0 C1.66 4.62 2.32 9.24 3 14 C0.14557422 10.19409895 -1.25372947 7.32409846 -3 3 C-2.01 2.67 -1.02 2.34 0 2 C0 1.34 0 0.68 0 0 Z " fill="#F45599" transform="translate(648,255)"/>
<path d="M0 0 C0.66 0.33 1.32 0.66 2 1 C1.04270084 2.12588014 0.08412105 3.2506715 -0.875 4.375 C-1.40867187 5.00148437 -1.94234375 5.62796875 -2.4921875 6.2734375 C-3.61432007 7.55836651 -4.79371975 8.79371975 -6 10 C-6.33 9.34 -6.66 8.68 -7 8 C-7.66 7.67 -8.32 7.34 -9 7 C-7.87720538 6.01830524 -6.75168527 5.03972702 -5.625 4.0625 C-4.68527344 3.24458984 -4.68527344 3.24458984 -3.7265625 2.41015625 C-2 1 -2 1 0 0 Z " fill="#FCB5E3" transform="translate(663,193)"/>
<path d="M0 0 C6.08269361 -0.19310138 12.2499825 -0.27326273 18 2 C18.99 3.485 18.99 3.485 20 5 C18.83984375 4.69255859 18.83984375 4.69255859 17.65625 4.37890625 C11.7640457 2.85480885 6.05938192 1.58263288 0 1 C0 0.67 0 0.34 0 0 Z " fill="#FACEE8" transform="translate(703,172)"/>
<path d="M0 0 C2.3223428 2.8762349 3.86565842 5.63780422 5.25 9.0625 C5.60578125 9.91972656 5.9615625 10.77695312 6.328125 11.66015625 C7 14 7 14 6 17 C5.67 17 5.34 17 5 17 C4.731875 15.96875 4.46375 14.9375 4.1875 13.875 C3.45413727 11.26338452 2.6290252 9.27231865 1.375 6.8125 C0 4 0 4 0 0 Z " fill="#B43B70" transform="translate(718,384)"/>
<path d="M0 0 C0.33 0 0.66 0 1 0 C1.06058594 0.73605469 1.12117187 1.47210938 1.18359375 2.23046875 C1.26738281 3.20628906 1.35117187 4.18210938 1.4375 5.1875 C1.51871094 6.15042969 1.59992187 7.11335937 1.68359375 8.10546875 C1.94386669 10.98062148 1.94386669 10.98062148 2.59765625 13.67578125 C3 16 3 16 2 19 C-0.04898287 14.78103134 -0.21207997 11.34627854 -0.125 6.6875 C-0.10695313 5.43324219 -0.08890625 4.17898437 -0.0703125 2.88671875 C-0.03550781 1.45779297 -0.03550781 1.45779297 0 0 Z " fill="#D01C67" transform="translate(649,246)"/>
<path d="M0 0 C0.66 0 1.32 0 2 0 C2 0.99 2 1.98 2 3 C3.258125 2.855625 4.51625 2.71125 5.8125 2.5625 C6.52019531 2.48128906 7.22789062 2.40007812 7.95703125 2.31640625 C10.19396393 2.02829265 10.19396393 2.02829265 13 1 C12.4375 2.9375 12.4375 2.9375 11 5 C7.5625 5.875 7.5625 5.875 4 6 C1 4 1 4 0.3125 1.875 C0.209375 1.25625 0.10625 0.6375 0 0 Z " fill="#FBCCE3" transform="translate(734,217)"/>
<path d="M0 0 C3.63 0.66 7.26 1.32 11 2 C10.39816251 4.02045442 9.72693904 6.02111039 9 8 C8.01 8.495 8.01 8.495 7 9 C7.33 7.02 7.66 5.04 8 3 C6.865625 2.87625 5.73125 2.7525 4.5625 2.625 C3.386875 2.41875 2.21125 2.2125 1 2 C0.67 1.34 0.34 0.68 0 0 Z " fill="#FDD5F0" transform="translate(682,326)"/>
<path d="M0 0 C0.66 0.33 1.32 0.66 2 1 C1.67 1.66 1.34 2.32 1 3 C2.32 3.66 3.64 4.32 5 5 C1.37 5 -2.26 5 -6 5 C-2.25 1.125 -2.25 1.125 0 0 Z " fill="#FED4F4" transform="translate(697,240)"/>
<path d="M0 0 C3.42724441 5.14086661 3.1015597 10.00797796 3 16 C2.67 16 2.34 16 2 16 C2 14.35 2 12.7 2 11 C1.34 11 0.68 11 0 11 C0 7.37 0 3.74 0 0 Z " fill="#F8CAE7" transform="translate(719,401)"/>
<path d="M0 0 C0.33 0 0.66 0 1 0 C1.49940808 6.11774896 0.24900602 9.02495953 -3 14 C-3.66 14 -4.32 14 -5 14 C-3.46527032 9.27775484 -1.76054874 4.64144669 0 0 Z " fill="#F8CCEB" transform="translate(724,433)"/>
<path d="M0 0 C0.33 0.66 0.66 1.32 1 2 C0.54625 2.556875 0.0925 3.11375 -0.375 3.6875 C-2.11759315 5.94336572 -2.11759315 5.94336572 -2.9375 8.6875 C-4 11 -4 11 -6.125 11.8125 C-6.74375 11.874375 -7.3625 11.93625 -8 12 C-5.6163187 7.65829477 -3.21880117 3.7935871 0 0 Z " fill="#C3467C" transform="translate(648,193)"/>
<path d="M0 0 C0.66 0 1.32 0 2 0 C1.14285714 8.57142857 1.14285714 8.57142857 -1 12 C-2.45606519 7.47907032 -1.27032841 4.48351204 0 0 Z " fill="#F8D0EA" transform="translate(727,421)"/>
<path d="M0 0 C2 2 2 2 2 4 C2.33 4.99 2.66 5.98 3 7 C0.36 7 -2.28 7 -5 7 C-3.35 4.69 -1.7 2.38 0 0 Z " fill="#B41E5F" transform="translate(691,335)"/>
<path d="M0 0 C2.50719458 2.32649587 4.32183601 4.82681521 6.1875 7.6875 C6.71730469 8.49574219 7.24710938 9.30398438 7.79296875 10.13671875 C8.39044922 11.05904297 8.39044922 11.05904297 9 12 C4.38597864 10.53085887 4.38597864 10.53085887 2.63671875 8.125 C2.32347656 7.42375 2.01023437 6.7225 1.6875 6 C1.36136719 5.29875 1.03523437 4.5975 0.69921875 3.875 C0 2 0 2 0 0 Z " fill="#FBD4ED" transform="translate(645,293)"/>
<path d="M0 0 C0.99 0.33 1.98 0.66 3 1 C2.04663979 2.31611677 1.08714226 3.62778961 0.125 4.9375 C-0.40867187 5.66839844 -0.94234375 6.39929688 -1.4921875 7.15234375 C-3 9 -3 9 -5 10 C-3.66511872 6.40608886 -2.03977277 3.24509304 0 0 Z " fill="#9B4A78" transform="translate(717,444)"/>
<path d="M0 0 C0.33 0 0.66 0 1 0 C1 3.96 1 7.92 1 12 C1.66 12 2.32 12 3 12 C3 13.98 3 15.96 3 18 C0.54394629 15.44725126 0.01197061 14.14109357 -0.29296875 10.546875 C-0.25816406 9.29390625 -0.22335937 8.0409375 -0.1875 6.75 C-0.16042969 5.48671875 -0.13335938 4.2234375 -0.10546875 2.921875 C-0.07066406 1.95765625 -0.03585937 0.9934375 0 0 Z " fill="#BF487F" transform="translate(722,415)"/>
<path d="M0 0 C1.134375 0.020625 2.26875 0.04125 3.4375 0.0625 C3.4375 0.3925 3.4375 0.7225 3.4375 1.0625 C1.4575 1.3925 -0.5225 1.7225 -2.5625 2.0625 C-2.5625 3.0525 -2.5625 4.0425 -2.5625 5.0625 C-1.9025 5.3925 -1.2425 5.7225 -0.5625 6.0625 C-0.8925 6.7225 -1.2225 7.3825 -1.5625 8.0625 C-3.2125 7.0725 -4.8625 6.0825 -6.5625 5.0625 C-4.14811644 0.07277397 -4.14811644 0.07277397 0 0 Z " fill="#F9BDE2" transform="translate(714.5625,187.9375)"/>
<path d="M0 0 C0.66 0.33 1.32 0.66 2 1 C1.125 5.75 1.125 5.75 0 8 C-0.66 8 -1.32 8 -2 8 C-1.125 1.125 -1.125 1.125 0 0 Z " fill="#C53073" transform="translate(724,400)"/>
<path d="M0 0 C0.66 0.33 1.32 0.66 2 1 C2 1.99 2 2.98 2 4 C-3.28 4 -8.56 4 -14 4 C-14 3.67 -14 3.34 -14 3 C-13.07316406 2.95101562 -12.14632812 2.90203125 -11.19140625 2.8515625 C-9.99386719 2.77679688 -8.79632812 2.70203125 -7.5625 2.625 C-6.36753906 2.55539063 -5.17257812 2.48578125 -3.94140625 2.4140625 C-2.97074219 2.27742187 -2.00007812 2.14078125 -1 2 C-0.67 1.34 -0.34 0.68 0 0 Z " fill="#DF3F80" transform="translate(736,226)"/>
<path d="M0 0 C0.66 0 1.32 0 2 0 C1.64950425 3.24208567 1.43778819 4.61527704 -1.0625 6.8125 C-1.701875 7.204375 -2.34125 7.59625 -3 8 C-2.67 6.02 -2.34 4.04 -2 2 C-1.34 2 -0.68 2 0 2 C0 1.34 0 0.68 0 0 Z " fill="#C64177" transform="translate(735,305)"/>
<path d="M0 0 C0.66 0.33 1.32 0.66 2 1 C2 2.98 2 4.96 2 7 C1.01 7 0.02 7 -1 7 C-1.04254356 5.00045254 -1.04080783 2.99958364 -1 1 C-0.67 0.67 -0.34 0.34 0 0 Z " fill="#AA2B6B" transform="translate(722,429)"/>
<path d="M0 0 C0.99 0 1.98 0 3 0 C1.63016497 3.16115776 1.0109362 3.9927092 -2 6 C-2.66 5.67 -3.32 5.34 -4 5 C-4 4.34 -4 3.68 -4 3 C-3.01 3 -2.02 3 -1 3 C-0.67 2.01 -0.34 1.02 0 0 Z " fill="#C03069" transform="translate(729,311)"/>
<path d="M0 0 C2.79872437 2.52788007 4.45773019 4.20411134 5 8 C4.01 8 3.02 8 2 8 C0.23537317 4.91190305 0 3.76687864 0 0 Z " fill="#CB5085" transform="translate(751,201)"/>
<path d="M0 0 C2.04119788 1.61594832 4.04072937 3.2856382 6 5 C6 5.66 6 6.32 6 7 C6.66 7 7.32 7 8 7 C7.67 7.66 7.34 8.32 7 9 C4.36 6.69 1.72 4.38 -1 2 C-0.67 1.34 -0.34 0.68 0 0 Z " fill="#CD3D7A" transform="translate(735,195)"/>
<path d="M0 0 C3.3 1.65 6.6 3.3 10 5 C6 6 6 6 3.3125 4.75 C1 3 1 3 0 0 Z " fill="#FAD4EC" transform="translate(670,319)"/>
<path d="M0 0 C0.66 0 1.32 0 2 0 C2 0.66 2 1.32 2 2 C2.99 2 3.98 2 5 2 C5.66 3.65 6.32 5.3 7 7 C6.01 7 5.02 7 4 7 C2.02 3.535 2.02 3.535 0 0 Z " fill="#AE3168" transform="translate(647,295)"/>
<path d="M0 0 C0.66 0.66 1.32 1.32 2 2 C2.99 1.34 3.98 0.68 5 0 C5 1.65 5 3.3 5 5 C3.68 5.33 2.36 5.66 1 6 C0.67 4.02 0.34 2.04 0 0 Z " fill="#FC95C6" transform="translate(642,245)"/>
<path d="M0 0 C2.96404505 2.80804268 5.44499019 5.18315774 7 9 C6.34 9 5.68 9 5 9 C5 8.34 5 7.68 5 7 C4.01 6.67 3.02 6.34 2 6 C0.8125 2.9375 0.8125 2.9375 0 0 Z " fill="#CA598D" transform="translate(725,205)"/>
<path d="M0 0 C0.99 0 1.98 0 3 0 C6.22265625 5.2734375 6.22265625 5.2734375 7 7 C6.67 7.66 6.34 8.32 6 9 C4.02 6.03 2.04 3.06 0 0 Z " fill="#FDD2EC" transform="translate(746,193)"/>
<path d="M0 0 C0.66 0 1.32 0 2 0 C4.09230769 4.43076923 4.09230769 4.43076923 3.625 7.3125 C3.41875 7.869375 3.2125 8.42625 3 9 C0 3.375 0 3.375 0 0 Z " fill="#FEDBF1" transform="translate(703,353)"/>
<path d="M0 0 C0.99 0 1.98 0 3 0 C4.32 2.31 5.64 4.62 7 7 C6.34 7 5.68 7 5 7 C5 6.34 5 5.68 5 5 C4.360625 4.731875 3.72125 4.46375 3.0625 4.1875 C1 3 1 3 0 0 Z " fill="#B52360" transform="translate(644,290)"/>
</svg>
